<!DOCTYPE svg PUBLIC "-//W3C//DTD SVG 1.1//EN" "http://www.w3.org/Graphics/SVG/1.1/DTD/svg11.dtd">
<svg xmlns="http://www.w3.org/2000/svg" xmlns:xlink="http://www.w3.org/1999/xlink" xmlns:jfreesvg="http://www.jfree.org/jfreesvg/svg" width="750" height="454" text-rendering="auto" shape-rendering="auto">
<defs><clipPath id="_910871224645875clip-0"><path d="M 0 0 L 750 0 L 750 454 L 0 454 L 0 0 Z "/></clipPath>
</defs>
<rect x="0" y="0" width="750" height="454" style="fill: rgb(255,255,255); fill-opacity: 1.0" clip-path="url(#_910871224645875clip-0)"/><line x1="99" y1="158" x2="530" y2="197" style="stroke-width: 1.0;stroke: rgb(0,0,0);stroke-opacity: 1.0;stroke-linecap: round;stroke-linejoin: round;" clip-path="url(#_910871224645875clip-0)"/><g style="fill: rgb(0,0,0); fill-opacity: 1.0; stroke: none" clip-path="url(#_910871224645875clip-0)"><path d="M 531 198 L 521 193 L 520 201 Z "/></g><g style="stroke-width: 1.0;stroke: rgb(0,0,0);stroke-opacity: 1.0;stroke-linecap: square;; fill: none" clip-path="url(#_910871224645875clip-0)"><path d="M 531 198 L 521 193 L 520 201 Z "/></g><line x1="99" y1="158" x2="450" y2="197" style="stroke-width: 1.0;stroke: rgb(0,0,0);stroke-opacity: 1.0;stroke-linecap: round;stroke-linejoin: round;" clip-path="url(#_910871224645875clip-0)"/><g style="fill: rgb(0,0,0); fill-opacity: 1.0; stroke: none" clip-path="url(#_910871224645875clip-0)"><path d="M 451 198 L 441 192 L 440 200 Z "/></g><g style="stroke-width: 1.0;stroke: rgb(0,0,0);stroke-opacity: 1.0;stroke-linecap: square;; fill: none" clip-path="url(#_910871224645875clip-0)"><path d="M 451 198 L 441 192 L 440 200 Z "/></g><line x1="99" y1="158" x2="370" y2="197" style="stroke-width: 1.0;stroke: rgb(0,0,0);stroke-opacity: 1.0;stroke-linecap: round;stroke-linejoin: round;" clip-path="url(#_910871224645875clip-0)"/><g style="fill: rgb(0,0,0); fill-opacity: 1.0; stroke: none" clip-path="url(#_910871224645875clip-0)"><path d="M 371 198 L 361 192 L 360 200 Z "/></g><g style="stroke-width: 1.0;stroke: rgb(0,0,0);stroke-opacity: 1.0;stroke-linecap: square;; fill: none" clip-path="url(#_910871224645875clip-0)"><path d="M 371 198 L 361 192 L 360 200 Z "/></g><line x1="99" y1="158" x2="290" y2="197" style="stroke-width: 1.0;stroke: rgb(0,0,0);stroke-opacity: 1.0;stroke-linecap: round;stroke-linejoin: round;" clip-path="url(#_910871224645875clip-0)"/><g style="fill: rgb(0,0,0); fill-opacity: 1.0; stroke: none" clip-path="url(#_910871224645875clip-0)"><path d="M 291 198 L 282 192 L 280 199 Z "/></g><g style="stroke-width: 1.0;stroke: rgb(0,0,0);stroke-opacity: 1.0;stroke-linecap: square;; fill: none" clip-path="url(#_910871224645875clip-0)"><path d="M 291 198 L 282 192 L 280 199 Z "/></g><line x1="99" y1="158" x2="210" y2="197" style="stroke-width: 1.0;stroke: rgb(0,0,0);stroke-opacity: 1.0;stroke-linecap: round;stroke-linejoin: round;" clip-path="url(#_910871224645875clip-0)"/><g style="fill: rgb(0,0,0); fill-opacity: 1.0; stroke: none" clip-path="url(#_910871224645875clip-0)"><path d="M 211 198 L 202 190 L 200 198 Z "/></g><g style="stroke-width: 1.0;stroke: rgb(0,0,0);stroke-opacity: 1.0;stroke-linecap: square;; fill: none" clip-path="url(#_910871224645875clip-0)"><path d="M 211 198 L 202 190 L 200 198 Z "/></g><line x1="99" y1="158" x2="126" y2="200" style="stroke-width: 1.0;stroke: rgb(0,0,0);stroke-opacity: 1.0;stroke-linecap: round;stroke-linejoin: round;" clip-path="url(#_910871224645875clip-0)"/><g style="fill: rgb(0,0,0); fill-opacity: 1.0; stroke: none" clip-path="url(#_910871224645875clip-0)"><path d="M 127 201 L 124 190 L 118 194 Z "/></g><g style="stroke-width: 1.0;stroke: rgb(0,0,0);stroke-opacity: 1.0;stroke-linecap: square;; fill: none" clip-path="url(#_910871224645875clip-0)"><path d="M 127 201 L 124 190 L 118 194 Z "/></g><line x1="531" y1="198" x2="434" y2="330" style="stroke-width: 1.0;stroke: rgb(0,0,0);stroke-opacity: 1.0;stroke-linecap: round;stroke-linejoin: round;" clip-path="url(#_910871224645875clip-0)"/><g style="fill: rgb(0,0,0); fill-opacity: 1.0; stroke: none" clip-path="url(#_910871224645875clip-0)"><path d="M 434 331 L 443 325 L 436 320 Z "/></g><g style="stroke-width: 1.0;stroke: rgb(0,0,0);stroke-opacity: 1.0;stroke-linecap: square;; fill: none" clip-path="url(#_910871224645875clip-0)"><path d="M 434 331 L 443 325 L 436 320 Z "/></g><line x1="495" y1="220" x2="430" y2="329" style="stroke-width: 1.0;stroke: rgb(0,0,0);stroke-opacity: 1.0;stroke-linecap: round;stroke-linejoin: round;" clip-path="url(#_910871224645875clip-0)"/><g style="fill: rgb(0,0,0); fill-opacity: 1.0; stroke: none" clip-path="url(#_910871224645875clip-0)"><path d="M 430 330 L 438 323 L 431 319 Z "/></g><g style="stroke-width: 1.0;stroke: rgb(0,0,0);stroke-opacity: 1.0;stroke-linecap: square;; fill: none" clip-path="url(#_910871224645875clip-0)"><path d="M 430 330 L 438 323 L 431 319 Z "/></g><line x1="415" y1="220" x2="415" y2="329" style="stroke-width: 1.0;stroke: rgb(0,0,0);stroke-opacity: 1.0;stroke-linecap: round;stroke-linejoin: round;" clip-path="url(#_910871224645875clip-0)"/><g style="fill: rgb(0,0,0); fill-opacity: 1.0; stroke: none" clip-path="url(#_910871224645875clip-0)"><path d="M 415 330 L 419 320 L 411 320 Z "/></g><g style="stroke-width: 1.0;stroke: rgb(0,0,0);stroke-opacity: 1.0;stroke-linecap: square;; fill: none" clip-path="url(#_910871224645875clip-0)"><path d="M 415 330 L 419 320 L 411 320 Z "/></g><line x1="335" y1="220" x2="398" y2="329" style="stroke-width: 1.0;stroke: rgb(0,0,0);stroke-opacity: 1.0;stroke-linecap: round;stroke-linejoin: round;" clip-path="url(#_910871224645875clip-0)"/><g style="fill: rgb(0,0,0); fill-opacity: 1.0; stroke: none" clip-path="url(#_910871224645875clip-0)"><path d="M 399 330 L 397 319 L 390 323 Z "/></g><g style="stroke-width: 1.0;stroke: rgb(0,0,0);stroke-opacity: 1.0;stroke-linecap: square;; fill: none" clip-path="url(#_910871224645875clip-0)"><path d="M 399 330 L 397 319 L 390 323 Z "/></g><line x1="299" y1="198" x2="394" y2="330" style="stroke-width: 1.0;stroke: rgb(0,0,0);stroke-opacity: 1.0;stroke-linecap: round;stroke-linejoin: round;" clip-path="url(#_910871224645875clip-0)"/><g style="fill: rgb(0,0,0); fill-opacity: 1.0; stroke: none" clip-path="url(#_910871224645875clip-0)"><path d="M 395 331 L 392 320 L 385 325 Z "/></g><g style="stroke-width: 1.0;stroke: rgb(0,0,0);stroke-opacity: 1.0;stroke-linecap: square;; fill: none" clip-path="url(#_910871224645875clip-0)"><path d="M 395 331 L 392 320 L 385 325 Z "/></g><line x1="215" y1="201" x2="381" y2="331" style="stroke-width: 1.0;stroke: rgb(0,0,0);stroke-opacity: 1.0;stroke-linecap: round;stroke-linejoin: round;" clip-path="url(#_910871224645875clip-0)"/><g style="fill: rgb(0,0,0); fill-opacity: 1.0; stroke: none" clip-path="url(#_910871224645875clip-0)"><path d="M 382 332 L 376 322 L 371 328 Z "/></g><g style="stroke-width: 1.0;stroke: rgb(0,0,0);stroke-opacity: 1.0;stroke-linecap: square;; fill: none" clip-path="url(#_910871224645875clip-0)"><path d="M 382 332 L 376 322 L 371 328 Z "/></g><line x1="651" y1="198" x2="451" y2="332" style="stroke-width: 1.0;stroke: rgb(0,0,0);stroke-opacity: 1.0;stroke-linecap: round;stroke-linejoin: round;" clip-path="url(#_910871224645875clip-0)"/><g style="fill: rgb(0,0,0); fill-opacity: 1.0; stroke: none" clip-path="url(#_910871224645875clip-0)"><path d="M 451 333 L 461 330 L 457 324 Z "/></g><g style="stroke-width: 1.0;stroke: rgb(0,0,0);stroke-opacity: 1.0;stroke-linecap: square;; fill: none" clip-path="url(#_910871224645875clip-0)"><path d="M 451 333 L 461 330 L 457 324 Z "/></g><line x1="99" y1="118" x2="530" y2="197" style="stroke-width: 1.0;stroke: rgb(0,0,0);stroke-opacity: 1.0;stroke-linecap: round;stroke-linejoin: round;" clip-path="url(#_910871224645875clip-0)"/><g style="fill: rgb(0,0,0); fill-opacity: 1.0; stroke: none" clip-path="url(#_910871224645875clip-0)"><path d="M 531 198 L 521 192 L 520 200 Z "/></g><g style="stroke-width: 1.0;stroke: rgb(0,0,0);stroke-opacity: 1.0;stroke-linecap: square;; fill: none" clip-path="url(#_910871224645875clip-0)"><path d="M 531 198 L 521 192 L 520 200 Z "/></g><line x1="99" y1="118" x2="450" y2="197" style="stroke-width: 1.0;stroke: rgb(0,0,0);stroke-opacity: 1.0;stroke-linecap: round;stroke-linejoin: round;" clip-path="url(#_910871224645875clip-0)"/><g style="fill: rgb(0,0,0); fill-opacity: 1.0; stroke: none" clip-path="url(#_910871224645875clip-0)"><path d="M 451 198 L 442 191 L 440 199 Z "/></g><g style="stroke-width: 1.0;stroke: rgb(0,0,0);stroke-opacity: 1.0;stroke-linecap: square;; fill: none" clip-path="url(#_910871224645875clip-0)"><path d="M 451 198 L 442 191 L 440 199 Z "/></g><line x1="99" y1="118" x2="370" y2="197" style="stroke-width: 1.0;stroke: rgb(0,0,0);stroke-opacity: 1.0;stroke-linecap: round;stroke-linejoin: round;" clip-path="url(#_910871224645875clip-0)"/><g style="fill: rgb(0,0,0); fill-opacity: 1.0; stroke: none" clip-path="url(#_910871224645875clip-0)"><path d="M 371 198 L 362 191 L 360 199 Z "/></g><g style="stroke-width: 1.0;stroke: rgb(0,0,0);stroke-opacity: 1.0;stroke-linecap: square;; fill: none" clip-path="url(#_910871224645875clip-0)"><path d="M 371 198 L 362 191 L 360 199 Z "/></g><line x1="99" y1="118" x2="290" y2="197" style="stroke-width: 1.0;stroke: rgb(0,0,0);stroke-opacity: 1.0;stroke-linecap: round;stroke-linejoin: round;" clip-path="url(#_910871224645875clip-0)"/><g style="fill: rgb(0,0,0); fill-opacity: 1.0; stroke: none" clip-path="url(#_910871224645875clip-0)"><path d="M 291 198 L 283 190 L 280 197 Z "/></g><g style="stroke-width: 1.0;stroke: rgb(0,0,0);stroke-opacity: 1.0;stroke-linecap: square;; fill: none" clip-path="url(#_910871224645875clip-0)"><path d="M 291 198 L 283 190 L 280 197 Z "/></g><line x1="99" y1="118" x2="210" y2="197" style="stroke-width: 1.0;stroke: rgb(0,0,0);stroke-opacity: 1.0;stroke-linecap: round;stroke-linejoin: round;" clip-path="url(#_910871224645875clip-0)"/><g style="fill: rgb(0,0,0); fill-opacity: 1.0; stroke: none" clip-path="url(#_910871224645875clip-0)"><path d="M 211 198 L 205 188 L 200 195 Z "/></g><g style="stroke-width: 1.0;stroke: rgb(0,0,0);stroke-opacity: 1.0;stroke-linecap: square;; fill: none" clip-path="url(#_910871224645875clip-0)"><path d="M 211 198 L 205 188 L 200 195 Z "/></g><line x1="99" y1="118" x2="126" y2="200" style="stroke-width: 1.0;stroke: rgb(0,0,0);stroke-opacity: 1.0;stroke-linecap: round;stroke-linejoin: round;" clip-path="url(#_910871224645875clip-0)"/><g style="fill: rgb(0,0,0); fill-opacity: 1.0; stroke: none" clip-path="url(#_910871224645875clip-0)"><path d="M 127 201 L 127 190 L 120 192 Z "/></g><g style="stroke-width: 1.0;stroke: rgb(0,0,0);stroke-opacity: 1.0;stroke-linecap: square;; fill: none" clip-path="url(#_910871224645875clip-0)"><path d="M 127 201 L 127 190 L 120 192 Z "/></g><line x1="449" y1="76" x2="511" y2="57" style="stroke-width: 1.0;stroke: rgb(0,0,0);stroke-opacity: 1.0;stroke-linecap: round;stroke-linejoin: round;" clip-path="url(#_910871224645875clip-0)"/><g style="fill: rgb(0,0,0); fill-opacity: 1.0; stroke: none" clip-path="url(#_910871224645875clip-0)"><path d="M 512 57 L 501 56 L 503 63 Z "/></g><g style="stroke-width: 1.0;stroke: rgb(0,0,0);stroke-opacity: 1.0;stroke-linecap: square;; fill: none" clip-path="url(#_910871224645875clip-0)"><path d="M 512 57 L 501 56 L 503 63 Z "/></g><line x1="448" y1="119" x2="650" y2="197" style="stroke-width: 1.0;stroke: rgb(0,0,0);stroke-opacity: 1.0;stroke-linecap: round;stroke-linejoin: round;" clip-path="url(#_910871224645875clip-0)"/><g style="fill: rgb(0,0,0); fill-opacity: 1.0; stroke: none" clip-path="url(#_910871224645875clip-0)"><path d="M 651 198 L 643 190 L 640 198 Z "/></g><g style="stroke-width: 1.0;stroke: rgb(0,0,0);stroke-opacity: 1.0;stroke-linecap: square;; fill: none" clip-path="url(#_910871224645875clip-0)"><path d="M 651 198 L 643 190 L 640 198 Z "/></g><line x1="432" y1="124" x2="530" y2="197" style="stroke-width: 1.0;stroke: rgb(0,0,0);stroke-opacity: 1.0;stroke-linecap: round;stroke-linejoin: round;" clip-path="url(#_910871224645875clip-0)"/><g style="fill: rgb(0,0,0); fill-opacity: 1.0; stroke: none" clip-path="url(#_910871224645875clip-0)"><path d="M 531 198 L 525 188 L 520 195 Z "/></g><g style="stroke-width: 1.0;stroke: rgb(0,0,0);stroke-opacity: 1.0;stroke-linecap: square;; fill: none" clip-path="url(#_910871224645875clip-0)"><path d="M 531 198 L 525 188 L 520 195 Z "/></g><line x1="415" y1="128" x2="450" y2="197" style="stroke-width: 1.0;stroke: rgb(0,0,0);stroke-opacity: 1.0;stroke-linecap: round;stroke-linejoin: round;" clip-path="url(#_910871224645875clip-0)"/><g style="fill: rgb(0,0,0); fill-opacity: 1.0; stroke: none" clip-path="url(#_910871224645875clip-0)"><path d="M 451 198 L 449 187 L 442 190 Z "/></g><g style="stroke-width: 1.0;stroke: rgb(0,0,0);stroke-opacity: 1.0;stroke-linecap: square;; fill: none" clip-path="url(#_910871224645875clip-0)"><path d="M 451 198 L 449 187 L 442 190 Z "/></g><line x1="392" y1="130" x2="414" y2="175" style="stroke-width: 1.0;stroke: rgb(0,0,0);stroke-opacity: 1.0;stroke-linecap: round;stroke-linejoin: round;" clip-path="url(#_910871224645875clip-0)"/><g style="fill: rgb(0,0,0); fill-opacity: 1.0; stroke: none" clip-path="url(#_910871224645875clip-0)"><path d="M 415 176 L 414 165 L 406 168 Z "/></g><g style="stroke-width: 1.0;stroke: rgb(0,0,0);stroke-opacity: 1.0;stroke-linecap: square;; fill: none" clip-path="url(#_910871224645875clip-0)"><path d="M 415 176 L 414 165 L 406 168 Z "/></g><line x1="366" y1="130" x2="335" y2="175" style="stroke-width: 1.0;stroke: rgb(0,0,0);stroke-opacity: 1.0;stroke-linecap: round;stroke-linejoin: round;" clip-path="url(#_910871224645875clip-0)"/><g style="fill: rgb(0,0,0); fill-opacity: 1.0; stroke: none" clip-path="url(#_910871224645875clip-0)"><path d="M 335 176 L 343 169 L 337 165 Z "/></g><g style="stroke-width: 1.0;stroke: rgb(0,0,0);stroke-opacity: 1.0;stroke-linecap: square;; fill: none" clip-path="url(#_910871224645875clip-0)"><path d="M 335 176 L 343 169 L 337 165 Z "/></g><line x1="343" y1="127" x2="299" y2="197" style="stroke-width: 1.0;stroke: rgb(0,0,0);stroke-opacity: 1.0;stroke-linecap: round;stroke-linejoin: round;" clip-path="url(#_910871224645875clip-0)"/><g style="fill: rgb(0,0,0); fill-opacity: 1.0; stroke: none" clip-path="url(#_910871224645875clip-0)"><path d="M 299 198 L 307 191 L 300 187 Z "/></g><g style="stroke-width: 1.0;stroke: rgb(0,0,0);stroke-opacity: 1.0;stroke-linecap: square;; fill: none" clip-path="url(#_910871224645875clip-0)"><path d="M 299 198 L 307 191 L 300 187 Z "/></g><line x1="327" y1="124" x2="215" y2="200" style="stroke-width: 1.0;stroke: rgb(0,0,0);stroke-opacity: 1.0;stroke-linecap: round;stroke-linejoin: round;" clip-path="url(#_910871224645875clip-0)"/><g style="fill: rgb(0,0,0); fill-opacity: 1.0; stroke: none" clip-path="url(#_910871224645875clip-0)"><path d="M 215 201 L 225 198 L 220 192 Z "/></g><g style="stroke-width: 1.0;stroke: rgb(0,0,0);stroke-opacity: 1.0;stroke-linecap: square;; fill: none" clip-path="url(#_910871224645875clip-0)"><path d="M 215 201 L 225 198 L 220 192 Z "/></g><line x1="293" y1="103" x2="99" y2="117" style="stroke-width: 1.0;stroke: rgb(0,0,0);stroke-opacity: 1.0;stroke-linecap: round;stroke-linejoin: round;" clip-path="url(#_910871224645875clip-0)"/><g style="fill: rgb(0,0,0); fill-opacity: 1.0; stroke: none" clip-path="url(#_910871224645875clip-0)"><path d="M 99 118 L 109 121 L 108 113 Z "/></g><g style="stroke-width: 1.0;stroke: rgb(0,0,0);stroke-opacity: 1.0;stroke-linecap: square;; fill: none" clip-path="url(#_910871224645875clip-0)"><path d="M 99 118 L 109 121 L 108 113 Z "/></g><g style="fill: rgb(192,255,255); fill-opacity: 1.0; stroke: none" clip-path="url(#_910871224645875clip-0)"><path d="M 10 158 L 25 135 L 84 135 L 99 158 L 84 180 L 25 180 Z "/></g><g style="stroke-width: 1.0;stroke: rgb(0,0,0);stroke-opacity: 1.0;stroke-linecap: square;; fill: none" clip-path="url(#_910871224645875clip-0)"><path d="M 10 158 L 25 135 L 84 135 L 99 158 L 84 180 L 25 180 Z "/></g><g style="fill: rgb(0,0,0); fill-opacity: 1.0; stroke: none" clip-path="url(#_910871224645875clip-0)"><path d="M 52.28 162 L 52.28 154.94 L 53.56 154.94 L 53.56 156.26 Q 54.58 154.78 56.05 154.78 Q 56.96 154.78 57.51 155.36 Q 58.06 155.94 58.06 156.93 L 58.06 162 L 56.78 162 L 56.78 157.34 Q 56.78 156.56 56.54 156.22 Q 56.31 155.89 55.78 155.89 Q 54.6 155.89 53.56 157.43 L 53.56 162 Z "/></g><g style="stroke-width: 1.0;stroke: rgb(0,0,0);stroke-opacity: 1.0;stroke-linecap: round;stroke-linejoin: round;; fill: none" clip-path="url(#_910871224645875clip-0)"><path d="M 13 158 L 26 138 L 83 138 L 96 158 L 83 177 L 26 177 Z "/></g><g style="fill: rgb(192,255,255); fill-opacity: 1.0; stroke: none" clip-path="url(#_910871224645875clip-0)"><path d="M 530 198 L 545 175 L 604 175 L 619 198 L 604 220 L 545 220 Z "/></g><g style="stroke-width: 1.0;stroke: rgb(0,0,0);stroke-opacity: 1.0;stroke-linecap: round;stroke-linejoin: round;; fill: none" clip-path="url(#_910871224645875clip-0)"><path d="M 530 198 L 545 175 L 604 175 L 619 198 L 604 220 L 545 220 Z "/></g><g style="fill: rgb(0,0,0); fill-opacity: 1.0; stroke: none" clip-path="url(#_910871224645875clip-0)"><path d="M 564.78 204.57 L 564.78 194.94 L 566.06 194.94 L 566.06 196.26 Q 566.85 194.78 568.42 194.78 Q 569.7 194.78 570.43 195.71 Q 571.16 196.64 571.16 198.25 Q 571.16 200.01 570.33 201.09 Q 569.5 202.16 568.15 202.16 Q 566.9 202.16 566.06 201.2 L 566.06 204.57 Z  M 566.06 200.32 Q 567.05 201.2 567.95 201.2 Q 569.8 201.2 569.8 198.38 Q 569.8 195.9 568.16 195.9 Q 567.08 195.9 566.06 197.06 Z  M 571.88 204.24 L 571.88 203.28 L 578.54 203.28 L 578.54 204.24 Z  M 580.16 202.04 L 580.16 200.89 Q 581.12 201.28 581.98 201.28 Q 582.93 201.28 583.48 200.72 Q 584.02 200.16 584.02 199.18 Q 584.02 197.01 581.03 197.01 Q 580.7 197.01 580.33 197.06 L 580.33 192.37 L 585.2 192.37 L 585.2 193.49 L 581.45 193.49 L 581.45 196.03 Q 583.3 196.03 584.35 196.88 Q 585.39 197.73 585.39 199.24 Q 585.39 200.65 584.44 201.44 Q 583.49 202.24 581.82 202.24 Q 581.09 202.24 580.16 202.04 Z "/></g><g style="stroke-width: 1.0;stroke: rgb(0,0,0);stroke-opacity: 1.0;stroke-linecap: round;stroke-linejoin: round;; fill: none" clip-path="url(#_910871224645875clip-0)"><path d="M 533 198 L 546 178 L 603 178 L 616 198 L 603 217 L 546 217 Z "/></g><g style="fill: rgb(192,255,255); fill-opacity: 1.0; stroke: none" clip-path="url(#_910871224645875clip-0)"><path d="M 450 198 L 465 175 L 524 175 L 539 198 L 524 220 L 465 220 Z "/></g><g style="stroke-width: 1.0;stroke: rgb(0,0,0);stroke-opacity: 1.0;stroke-linecap: round;stroke-linejoin: round;; fill: none" clip-path="url(#_910871224645875clip-0)"><path d="M 450 198 L 465 175 L 524 175 L 539 198 L 524 220 L 465 220 Z "/></g><g style="fill: rgb(0,0,0); fill-opacity: 1.0; stroke: none" clip-path="url(#_910871224645875clip-0)"><path d="M 484.78 204.57 L 484.78 194.94 L 486.06 194.94 L 486.06 196.26 Q 486.85 194.78 488.42 194.78 Q 489.7 194.78 490.43 195.71 Q 491.16 196.64 491.16 198.25 Q 491.16 200.01 490.33 201.09 Q 489.5 202.16 488.15 202.16 Q 486.9 202.16 486.06 201.2 L 486.06 204.57 Z  M 486.06 200.32 Q 487.05 201.2 487.95 201.2 Q 489.8 201.2 489.8 198.38 Q 489.8 195.9 488.16 195.9 Q 487.08 195.9 486.06 197.06 Z  M 491.88 204.24 L 491.88 203.28 L 498.54 203.28 L 498.54 204.24 Z  M 503.56 202 L 503.56 199.27 L 499.23 199.27 L 499.23 198.31 L 503.56 192.37 L 504.76 192.37 L 504.76 198.23 L 506.05 198.23 L 506.05 199.27 L 504.76 199.27 L 504.76 202 Z  M 500.48 198.23 L 503.64 198.23 L 503.64 193.95 Z "/></g><g style="stroke-width: 1.0;stroke: rgb(0,0,0);stroke-opacity: 1.0;stroke-linecap: round;stroke-linejoin: round;; fill: none" clip-path="url(#_910871224645875clip-0)"><path d="M 453 198 L 466 178 L 523 178 L 536 198 L 523 217 L 466 217 Z "/></g><g style="fill: rgb(192,255,255); fill-opacity: 1.0; stroke: none" clip-path="url(#_910871224645875clip-0)"><path d="M 370 198 L 385 175 L 444 175 L 459 198 L 444 220 L 385 220 Z "/></g><g style="stroke-width: 1.0;stroke: rgb(0,0,0);stroke-opacity: 1.0;stroke-linecap: round;stroke-linejoin: round;; fill: none" clip-path="url(#_910871224645875clip-0)"><path d="M 370 198 L 385 175 L 444 175 L 459 198 L 444 220 L 385 220 Z "/></g><g style="fill: rgb(0,0,0); fill-opacity: 1.0; stroke: none" clip-path="url(#_910871224645875clip-0)"><path d="M 404.78 204.57 L 404.78 194.94 L 406.06 194.94 L 406.06 196.26 Q 406.85 194.78 408.42 194.78 Q 409.7 194.78 410.43 195.71 Q 411.16 196.64 411.16 198.25 Q 411.16 200.01 410.33 201.09 Q 409.5 202.16 408.15 202.16 Q 406.9 202.16 406.06 201.2 L 406.06 204.57 Z  M 406.06 200.32 Q 407.05 201.2 407.95 201.2 Q 409.8 201.2 409.8 198.38 Q 409.8 195.9 408.16 195.9 Q 407.08 195.9 406.06 197.06 Z  M 411.88 204.24 L 411.88 203.28 L 418.54 203.28 L 418.54 204.24 Z  M 419.9 201.93 L 419.9 200.73 Q 421.28 201.28 422.07 201.28 Q 422.99 201.28 423.56 200.74 Q 424.14 200.2 424.14 199.35 Q 424.14 197.32 421.29 197.32 L 420.79 197.32 L 420.79 196.46 L 421.24 196.45 Q 423.9 196.45 423.9 194.57 Q 423.9 193.1 422.15 193.1 Q 421.18 193.1 420.03 193.64 L 420.03 192.52 Q 421.16 192.13 422.24 192.13 Q 425.19 192.13 425.19 194.36 Q 425.19 196.06 423.18 196.78 Q 425.51 197.32 425.51 199.33 Q 425.51 200.69 424.61 201.47 Q 423.71 202.24 422.15 202.24 Q 421.26 202.24 419.9 201.93 Z "/></g><g style="stroke-width: 1.0;stroke: rgb(0,0,0);stroke-opacity: 1.0;stroke-linecap: round;stroke-linejoin: round;; fill: none" clip-path="url(#_910871224645875clip-0)"><path d="M 373 198 L 386 178 L 443 178 L 456 198 L 443 217 L 386 217 Z "/></g><g style="fill: rgb(192,255,255); fill-opacity: 1.0; stroke: none" clip-path="url(#_910871224645875clip-0)"><path d="M 290 198 L 305 175 L 364 175 L 379 198 L 364 220 L 305 220 Z "/></g><g style="stroke-width: 1.0;stroke: rgb(0,0,0);stroke-opacity: 1.0;stroke-linecap: round;stroke-linejoin: round;; fill: none" clip-path="url(#_910871224645875clip-0)"><path d="M 290 198 L 305 175 L 364 175 L 379 198 L 364 220 L 305 220 Z "/></g><g style="fill: rgb(0,0,0); fill-opacity: 1.0; stroke: none" clip-path="url(#_910871224645875clip-0)"><path d="M 324.78 204.57 L 324.78 194.94 L 326.06 194.94 L 326.06 196.26 Q 326.85 194.78 328.42 194.78 Q 329.7 194.78 330.43 195.71 Q 331.16 196.64 331.16 198.25 Q 331.16 200.01 330.33 201.09 Q 329.5 202.16 328.15 202.16 Q 326.9 202.16 326.06 201.2 L 326.06 204.57 Z  M 326.06 200.32 Q 327.05 201.2 327.95 201.2 Q 329.8 201.2 329.8 198.38 Q 329.8 195.9 328.16 195.9 Q 327.08 195.9 326.06 197.06 Z  M 331.88 204.24 L 331.88 203.28 L 338.54 203.28 L 338.54 204.24 Z  M 339.65 202 L 339.65 200.87 Q 340.21 199.57 341.91 198.03 L 342.65 197.37 Q 344.07 196.09 344.07 194.83 Q 344.07 194.02 343.58 193.56 Q 343.1 193.1 342.25 193.1 Q 341.25 193.1 339.89 193.87 L 339.89 192.74 Q 341.17 192.13 342.43 192.13 Q 343.79 192.13 344.61 192.86 Q 345.42 193.59 345.42 194.79 Q 345.42 195.66 345.01 196.33 Q 344.6 197 343.47 197.95 L 342.98 198.38 Q 341.44 199.68 341.2 200.87 L 345.38 200.87 L 345.38 202 Z "/></g><g style="stroke-width: 1.0;stroke: rgb(0,0,0);stroke-opacity: 1.0;stroke-linecap: round;stroke-linejoin: round;; fill: none" clip-path="url(#_910871224645875clip-0)"><path d="M 293 198 L 306 178 L 363 178 L 376 198 L 363 217 L 306 217 Z "/></g><g style="fill: rgb(192,255,255); fill-opacity: 1.0; stroke: none" clip-path="url(#_910871224645875clip-0)"><path d="M 210 198 L 225 175 L 284 175 L 299 198 L 284 220 L 225 220 Z "/></g><g style="stroke-width: 1.0;stroke: rgb(0,0,0);stroke-opacity: 1.0;stroke-linecap: round;stroke-linejoin: round;; fill: none" clip-path="url(#_910871224645875clip-0)"><path d="M 210 198 L 225 175 L 284 175 L 299 198 L 284 220 L 225 220 Z "/></g><g style="fill: rgb(0,0,0); fill-opacity: 1.0; stroke: none" clip-path="url(#_910871224645875clip-0)"><path d="M 244.78 204.57 L 244.78 194.94 L 246.06 194.94 L 246.06 196.26 Q 246.85 194.78 248.42 194.78 Q 249.7 194.78 250.43 195.71 Q 251.16 196.64 251.16 198.25 Q 251.16 200.01 250.33 201.09 Q 249.5 202.16 248.15 202.16 Q 246.9 202.16 246.06 201.2 L 246.06 204.57 Z  M 246.06 200.32 Q 247.05 201.2 247.95 201.2 Q 249.8 201.2 249.8 198.38 Q 249.8 195.9 248.16 195.9 Q 247.08 195.9 246.06 197.06 Z  M 251.88 204.24 L 251.88 203.28 L 258.54 203.28 L 258.54 204.24 Z  M 260.55 202 L 260.55 201.04 L 262.47 201.04 L 262.47 193.44 L 260.55 193.92 L 260.55 192.93 L 263.76 192.13 L 263.76 201.04 L 265.68 201.04 L 265.68 202 Z "/></g><g style="stroke-width: 1.0;stroke: rgb(0,0,0);stroke-opacity: 1.0;stroke-linecap: round;stroke-linejoin: round;; fill: none" clip-path="url(#_910871224645875clip-0)"><path d="M 213 198 L 226 178 L 283 178 L 296 198 L 283 217 L 226 217 Z "/></g><g style="fill: rgb(192,255,255); fill-opacity: 1.0; stroke: none" clip-path="url(#_910871224645875clip-0)"><path d="M 126 201 L 141 178 L 200 178 L 215 201 L 200 223 L 141 223 Z "/></g><g style="stroke-width: 1.0;stroke: rgb(0,0,0);stroke-opacity: 1.0;stroke-linecap: round;stroke-linejoin: round;; fill: none" clip-path="url(#_910871224645875clip-0)"><path d="M 126 201 L 141 178 L 200 178 L 215 201 L 200 223 L 141 223 Z "/></g><g style="fill: rgb(0,0,0); fill-opacity: 1.0; stroke: none" clip-path="url(#_910871224645875clip-0)"><path d="M 160.78 207.57 L 160.78 197.94 L 162.06 197.94 L 162.06 199.26 Q 162.85 197.78 164.42 197.78 Q 165.7 197.78 166.43 198.71 Q 167.16 199.64 167.16 201.25 Q 167.16 203.01 166.33 204.09 Q 165.5 205.16 164.15 205.16 Q 162.9 205.16 162.06 204.2 L 162.06 207.57 Z  M 162.06 203.32 Q 163.05 204.2 163.95 204.2 Q 165.8 204.2 165.8 201.38 Q 165.8 198.9 164.16 198.9 Q 163.08 198.9 162.06 200.06 Z  M 167.88 207.24 L 167.88 206.28 L 174.54 206.28 L 174.54 207.24 Z  M 178.72 205.24 Q 177.23 205.24 176.31 203.84 Q 175.39 202.44 175.39 200.18 Q 175.39 197.9 176.32 196.52 Q 177.24 195.13 178.76 195.13 Q 180.27 195.13 181.2 196.52 Q 182.13 197.9 182.13 200.16 Q 182.13 202.48 181.2 203.86 Q 180.27 205.24 178.72 205.24 Z  M 178.73 204.28 Q 180.77 204.28 180.77 200.14 Q 180.77 196.1 178.76 196.1 Q 176.75 196.1 176.75 200.18 Q 176.75 204.28 178.73 204.28 Z "/></g><g style="stroke-width: 1.0;stroke: rgb(0,0,0);stroke-opacity: 1.0;stroke-linecap: round;stroke-linejoin: round;; fill: none" clip-path="url(#_910871224645875clip-0)"><path d="M 129 201 L 142 181 L 199 181 L 212 201 L 199 220 L 142 220 Z "/></g><g style="fill: rgb(192,192,255); fill-opacity: 1.0; stroke: none" clip-path="url(#_910871224645875clip-0)"><path d="M 650 198 L 665 175 L 724 175 L 739 198 L 724 220 L 665 220 Z "/></g><g style="stroke-width: 1.0;stroke: rgb(192,192,192);stroke-opacity: 1.0;stroke-linecap: round;stroke-linejoin: round;; fill: none" clip-path="url(#_910871224645875clip-0)"><path d="M 651 198 L 666 176 L 723 176 L 738 198 L 723 219 L 666 219 Z "/></g><g style="stroke-width: 1.0;stroke: rgb(192,192,192);stroke-opacity: 1.0;stroke-linecap: round;stroke-linejoin: round;; fill: none" clip-path="url(#_910871224645875clip-0)"><path d="M 652 198 L 667 177 L 722 177 L 737 198 L 722 218 L 667 218 Z "/></g><g style="stroke-width: 1.0;stroke: rgb(192,192,192);stroke-opacity: 1.0;stroke-linecap: round;stroke-linejoin: round;; fill: none" clip-path="url(#_910871224645875clip-0)"><path d="M 653 198 L 668 178 L 721 178 L 736 198 L 721 217 L 668 217 Z "/></g><g style="stroke-width: 1.0;stroke: rgb(192,192,192);stroke-opacity: 1.0;stroke-linecap: round;stroke-linejoin: round;; fill: none" clip-path="url(#_910871224645875clip-0)"><path d="M 654 198 L 669 179 L 720 179 L 735 198 L 720 216 L 669 216 Z "/></g><g style="stroke-width: 1.0;stroke: rgb(192,192,192);stroke-opacity: 1.0;stroke-linecap: round;stroke-linejoin: round;; fill: none" clip-path="url(#_910871224645875clip-0)"><path d="M 655 198 L 670 180 L 719 180 L 734 198 L 719 215 L 670 215 Z "/></g><g style="stroke-width: 1.0;stroke: rgb(192,192,192);stroke-opacity: 1.0;stroke-linecap: round;stroke-linejoin: round;; fill: none" clip-path="url(#_910871224645875clip-0)"><path d="M 656 198 L 671 181 L 718 181 L 733 198 L 718 214 L 671 214 Z "/></g><g style="stroke-width: 1.0;stroke: rgb(192,192,192);stroke-opacity: 1.0;stroke-linecap: round;stroke-linejoin: round;; fill: none" clip-path="url(#_910871224645875clip-0)"><path d="M 657 198 L 672 182 L 717 182 L 732 198 L 717 213 L 672 213 Z "/></g><g style="stroke-width: 1.0;stroke: rgb(192,192,192);stroke-opacity: 1.0;stroke-linecap: round;stroke-linejoin: round;; fill: none" clip-path="url(#_910871224645875clip-0)"><path d="M 658 198 L 673 183 L 716 183 L 731 198 L 716 212 L 673 212 Z "/></g><g style="stroke-width: 1.0;stroke: rgb(192,192,192);stroke-opacity: 1.0;stroke-linecap: round;stroke-linejoin: round;; fill: none" clip-path="url(#_910871224645875clip-0)"><path d="M 659 198 L 674 184 L 715 184 L 730 198 L 715 211 L 674 211 Z "/></g><g style="stroke-width: 1.0;stroke: rgb(0,0,0);stroke-opacity: 1.0;stroke-linecap: round;stroke-linejoin: round;; fill: none" clip-path="url(#_910871224645875clip-0)"><path d="M 650 198 L 665 175 L 724 175 L 739 198 L 724 220 L 665 220 Z "/></g><g style="fill: rgb(0,0,0); fill-opacity: 1.0; stroke: none" clip-path="url(#_910871224645875clip-0)"><path d="M 670.24 202 L 670.24 192.37 L 675.62 192.37 L 675.62 193.4 L 671.61 193.4 L 671.61 196.48 L 674.97 196.48 L 674.97 197.49 L 671.61 197.49 L 671.61 200.98 L 675.9 200.98 L 675.9 202 Z  M 677.46 202 L 677.46 192.37 L 679.96 192.37 Q 681.4 192.37 682.17 192.92 Q 682.94 193.47 682.94 194.49 Q 682.94 196.24 680.97 196.99 Q 683.33 197.71 683.33 199.59 Q 683.33 200.76 682.55 201.38 Q 681.77 202 680.3 202 Z  M 678.81 200.98 L 679.09 200.98 Q 680.6 200.98 681.04 200.79 Q 681.88 200.43 681.88 199.46 Q 681.88 198.6 681.12 198.04 Q 680.35 197.47 679.2 197.47 L 678.81 197.47 Z  M 678.81 196.6 L 679.25 196.6 Q 680.34 196.6 680.94 196.13 Q 681.55 195.67 681.55 194.81 Q 681.55 193.4 679.35 193.4 L 678.81 193.4 Z  M 683.88 204.24 L 683.88 203.28 L 690.54 203.28 L 690.54 204.24 Z  M 694.58 202.16 Q 693.15 202.16 692.21 201.1 Q 691.26 200.04 691.26 198.43 Q 691.26 196.71 692.2 195.74 Q 693.13 194.78 694.8 194.78 Q 695.63 194.78 696.65 195.01 L 696.65 196.08 Q 695.56 195.76 694.88 195.76 Q 693.9 195.76 693.3 196.5 Q 692.71 197.24 692.71 198.47 Q 692.71 199.66 693.32 200.39 Q 693.93 201.13 694.92 201.13 Q 695.8 201.13 696.73 200.68 L 696.73 201.79 Q 695.48 202.16 694.58 202.16 Z  M 701.41 202.16 Q 699.89 202.16 698.99 201.16 Q 698.09 200.15 698.09 198.47 Q 698.09 196.76 698.99 195.77 Q 699.9 194.78 701.45 194.78 Q 703.01 194.78 703.92 195.77 Q 704.82 196.76 704.82 198.46 Q 704.82 200.19 703.91 201.17 Q 703 202.16 701.41 202.16 Z  M 701.43 201.2 Q 703.46 201.2 703.46 198.46 Q 703.46 195.74 701.45 195.74 Q 699.45 195.74 699.45 198.47 Q 699.45 201.2 701.43 201.2 Z  M 706.83 204.57 L 706.83 194.94 L 708.11 194.94 L 708.11 196.26 Q 708.89 194.78 710.47 194.78 Q 711.74 194.78 712.48 195.71 Q 713.21 196.64 713.21 198.25 Q 713.21 200.01 712.38 201.09 Q 711.55 202.16 710.2 202.16 Q 708.94 202.16 708.11 201.2 L 708.11 204.57 Z  M 708.11 200.32 Q 709.1 201.2 709.99 201.2 Q 711.84 201.2 711.84 198.38 Q 711.84 195.9 710.2 195.9 Q 709.13 195.9 708.11 197.06 Z  M 715.62 204.57 L 716.76 202 L 714.03 194.94 L 715.42 194.94 L 717.44 200.26 L 719.6 194.94 L 720.81 194.94 L 716.95 204.57 Z "/></g><ellipse cx="574.5" cy="37.5" rx="88.5" ry="27.5" style="fill: rgb(255,255,192); fill-opacity: 1.0" clip-path="url(#_910871224645875clip-0)"/><ellipse cx="574.5" cy="37.5" rx="88.5" ry="27.5" style="stroke-width: 1.0;stroke: rgb(0,0,0);stroke-opacity: 1.0;stroke-linecap: round;stroke-linejoin: round;; fill: none" clip-path="url(#_910871224645875clip-0)"/><g style="fill: rgb(0,0,0); fill-opacity: 1.0; stroke: none" clip-path="url(#_910871224645875clip-0)"><path d="M 531.87 26 L 528.23 16.37 L 529.6 16.37 L 532.58 24.26 L 535.45 16.37 L 536.65 16.37 L 533.16 26 Z  M 541.63 25.1 Q 540.48 26.16 539.41 26.16 Q 538.54 26.16 537.96 25.61 Q 537.38 25.06 537.38 24.22 Q 537.38 23.07 538.35 22.45 Q 539.32 21.82 541.14 21.82 L 541.44 21.82 L 541.44 20.97 Q 541.44 19.74 540.18 19.74 Q 539.17 19.74 537.99 20.37 L 537.99 19.31 Q 539.28 18.78 540.42 18.78 Q 541.6 18.78 542.16 19.31 Q 542.72 19.85 542.72 20.97 L 542.72 24.17 Q 542.72 25.27 543.4 25.27 Q 543.49 25.27 543.65 25.25 L 543.74 25.95 Q 543.3 26.16 542.78 26.16 Q 541.88 26.16 541.63 25.1 Z  M 541.44 24.41 L 541.44 22.58 L 541.01 22.57 Q 539.96 22.57 539.31 22.97 Q 538.66 23.37 538.66 24.02 Q 538.66 24.48 538.99 24.8 Q 539.31 25.12 539.78 25.12 Q 540.58 25.12 541.44 24.41 Z  M 545.35 26 L 545.35 15.73 L 546.63 15.73 L 546.63 26 Z  M 549.2 26 L 549.2 18.94 L 550.48 18.94 L 550.48 26 Z  M 549.2 17.66 L 549.2 16.37 L 550.48 16.37 L 550.48 17.66 Z  M 557.58 26 L 557.58 24.67 Q 556.8 26.16 555.23 26.16 Q 553.95 26.16 553.22 25.23 Q 552.49 24.3 552.49 22.69 Q 552.49 20.93 553.32 19.85 Q 554.15 18.78 555.5 18.78 Q 556.75 18.78 557.58 19.74 L 557.58 15.73 L 558.87 15.73 L 558.87 26 Z  M 557.58 20.62 Q 556.58 19.74 555.69 19.74 Q 553.85 19.74 553.85 22.56 Q 553.85 25.04 555.49 25.04 Q 556.56 25.04 557.58 23.87 Z  M 565.07 25.1 Q 563.92 26.16 562.85 26.16 Q 561.98 26.16 561.4 25.61 Q 560.82 25.06 560.82 24.22 Q 560.82 23.07 561.79 22.45 Q 562.76 21.82 564.58 21.82 L 564.88 21.82 L 564.88 20.97 Q 564.88 19.74 563.62 19.74 Q 562.61 19.74 561.43 20.37 L 561.43 19.31 Q 562.72 18.78 563.86 18.78 Q 565.04 18.78 565.6 19.31 Q 566.16 19.85 566.16 20.97 L 566.16 24.17 Q 566.16 25.27 566.84 25.27 Q 566.93 25.27 567.09 25.25 L 567.18 25.95 Q 566.74 26.16 566.22 26.16 Q 565.32 26.16 565.07 25.1 Z  M 564.88 24.41 L 564.88 22.58 L 564.45 22.57 Q 563.4 22.57 562.75 22.97 Q 562.1 23.37 562.1 24.02 Q 562.1 24.48 562.43 24.8 Q 562.75 25.12 563.22 25.12 Q 564.02 25.12 564.88 24.41 Z  M 570.91 26.16 Q 569.93 26.16 569.38 25.6 Q 568.84 25.04 568.84 24.05 L 568.84 19.9 L 567.95 19.9 L 567.95 18.94 L 568.84 18.94 L 568.84 17.66 L 570.12 17.53 L 570.12 18.94 L 571.97 18.94 L 571.97 19.9 L 570.12 19.9 L 570.12 23.81 Q 570.12 25.2 571.32 25.2 Q 571.57 25.2 571.93 25.12 L 571.93 26 Q 571.34 26.16 570.91 26.16 Z  M 576.53 26.16 Q 575.02 26.16 574.11 25.16 Q 573.21 24.15 573.21 22.47 Q 573.21 20.76 574.12 19.77 Q 575.02 18.78 576.58 18.78 Q 578.13 18.78 579.04 19.77 Q 579.95 20.76 579.95 22.46 Q 579.95 24.19 579.04 25.17 Q 578.13 26.16 576.53 26.16 Z  M 576.55 25.2 Q 578.59 25.2 578.59 22.46 Q 578.59 19.74 576.58 19.74 Q 574.57 19.74 574.57 22.47 Q 574.57 25.2 576.55 25.2 Z  M 581.95 26 L 581.95 18.94 L 583.23 18.94 L 583.23 20.26 Q 583.99 18.78 585.44 18.78 Q 585.64 18.78 585.85 18.81 L 585.85 20.01 Q 585.52 19.9 585.27 19.9 Q 584.05 19.9 583.23 21.34 L 583.23 26 Z  M 593.73 26.16 Q 592.76 26.16 592.21 25.6 Q 591.67 25.04 591.67 24.05 L 591.67 19.9 L 590.78 19.9 L 590.78 18.94 L 591.67 18.94 L 591.67 17.66 L 592.95 17.53 L 592.95 18.94 L 594.8 18.94 L 594.8 19.9 L 592.95 19.9 L 592.95 23.81 Q 592.95 25.2 594.14 25.2 Q 594.4 25.2 594.76 25.12 L 594.76 26 Q 594.17 26.16 593.73 26.16 Z  M 597.01 28.57 L 598.15 26 L 595.42 18.94 L 596.8 18.94 L 598.83 24.26 L 600.99 18.94 L 602.2 18.94 L 598.34 28.57 Z  M 603.56 28.57 L 603.56 18.94 L 604.84 18.94 L 604.84 20.26 Q 605.62 18.78 607.2 18.78 Q 608.47 18.78 609.2 19.71 Q 609.94 20.64 609.94 22.25 Q 609.94 24.01 609.11 25.09 Q 608.28 26.16 606.92 26.16 Q 605.67 26.16 604.84 25.2 L 604.84 28.57 Z  M 604.84 24.32 Q 605.83 25.2 606.72 25.2 Q 608.57 25.2 608.57 22.38 Q 608.57 19.9 606.93 19.9 Q 605.86 19.9 604.84 21.06 Z  M 617.12 25.77 Q 615.83 26.16 614.91 26.16 Q 613.35 26.16 612.37 25.13 Q 611.38 24.09 611.38 22.44 Q 611.38 20.83 612.25 19.8 Q 613.12 18.77 614.47 18.77 Q 615.75 18.77 616.45 19.68 Q 617.15 20.6 617.15 22.27 L 617.14 22.67 L 612.69 22.67 Q 612.97 25.19 615.15 25.19 Q 615.95 25.19 617.12 24.76 Z  M 612.75 21.71 L 615.86 21.71 Q 615.86 19.74 614.39 19.74 Q 612.91 19.74 612.75 21.71 Z "/></g><g style="fill: rgb(0,0,0); fill-opacity: 1.0; stroke: none" clip-path="url(#_910871224645875clip-0)"><path d="M 497.65 42.16 Q 496.78 42.16 495.52 41.75 L 495.52 40.58 Q 496.78 41.2 497.71 41.2 Q 498.26 41.2 498.62 40.9 Q 498.99 40.6 498.99 40.15 Q 498.99 39.5 497.97 39.07 L 497.22 38.75 Q 495.56 38.06 495.56 36.76 Q 495.56 35.84 496.21 35.31 Q 496.87 34.78 498.01 34.78 Q 498.6 34.78 499.47 34.94 L 499.74 35 L 499.74 36.06 Q 498.66 35.74 498.03 35.74 Q 496.8 35.74 496.8 36.64 Q 496.8 37.22 497.73 37.62 L 498.35 37.88 Q 499.4 38.32 499.83 38.81 Q 500.27 39.3 500.27 40.04 Q 500.27 40.97 499.53 41.56 Q 498.8 42.16 497.65 42.16 Z  M 507.75 41.77 Q 506.46 42.16 505.54 42.16 Q 503.98 42.16 503 41.13 Q 502.01 40.09 502.01 38.44 Q 502.01 36.83 502.88 35.8 Q 503.75 34.77 505.1 34.77 Q 506.38 34.77 507.08 35.68 Q 507.78 36.6 507.78 38.27 L 507.77 38.67 L 503.32 38.67 Q 503.6 41.19 505.78 41.19 Q 506.58 41.19 507.75 40.76 Z  M 503.38 37.71 L 506.49 37.71 Q 506.49 35.74 505.02 35.74 Q 503.55 35.74 503.38 37.71 Z  M 509.99 42 L 509.99 31.73 L 511.27 31.73 L 511.27 42 Z  M 519.02 41.77 Q 517.73 42.16 516.81 42.16 Q 515.25 42.16 514.27 41.13 Q 513.28 40.09 513.28 38.44 Q 513.28 36.83 514.15 35.8 Q 515.02 34.77 516.37 34.77 Q 517.65 34.77 518.35 35.68 Q 519.05 36.6 519.05 38.27 L 519.05 38.67 L 514.59 38.67 Q 514.87 41.19 517.06 41.19 Q 517.86 41.19 519.02 40.76 Z  M 514.65 37.71 L 517.76 37.71 Q 517.76 35.74 516.29 35.74 Q 514.82 35.74 514.65 37.71 Z  M 524.02 42.16 Q 522.59 42.16 521.65 41.1 Q 520.7 40.04 520.7 38.43 Q 520.7 36.71 521.64 35.74 Q 522.57 34.78 524.24 34.78 Q 525.07 34.78 526.09 35.01 L 526.09 36.08 Q 525 35.76 524.32 35.76 Q 523.34 35.76 522.74 36.5 Q 522.15 37.24 522.15 38.47 Q 522.15 39.66 522.76 40.39 Q 523.37 41.13 524.36 41.13 Q 525.24 41.13 526.17 40.68 L 526.17 41.79 Q 524.93 42.16 524.02 42.16 Z  M 530.21 42.16 Q 529.23 42.16 528.68 41.6 Q 528.14 41.04 528.14 40.05 L 528.14 35.9 L 527.25 35.9 L 527.25 34.94 L 528.14 34.94 L 528.14 33.66 L 529.42 33.53 L 529.42 34.94 L 531.27 34.94 L 531.27 35.9 L 529.42 35.9 L 529.42 39.81 Q 529.42 41.2 530.62 41.2 Q 530.87 41.2 531.23 41.12 L 531.23 42 Q 530.64 42.16 530.21 42.16 Z  M 538.25 41.77 Q 536.96 42.16 536.04 42.16 Q 534.48 42.16 533.49 41.13 Q 532.51 40.09 532.51 38.44 Q 532.51 36.83 533.38 35.8 Q 534.25 34.77 535.6 34.77 Q 536.88 34.77 537.58 35.68 Q 538.28 36.6 538.28 38.27 L 538.27 38.67 L 533.82 38.67 Q 534.1 41.19 536.28 41.19 Q 537.08 41.19 538.25 40.76 Z  M 533.87 37.71 L 536.99 37.71 Q 536.99 35.74 535.52 35.74 Q 534.04 35.74 533.87 37.71 Z  M 545.02 42 L 545.02 40.67 Q 544.24 42.16 542.67 42.16 Q 541.39 42.16 540.66 41.23 Q 539.93 40.3 539.93 38.69 Q 539.93 36.93 540.76 35.85 Q 541.59 34.78 542.94 34.78 Q 544.2 34.78 545.02 35.74 L 545.02 31.73 L 546.31 31.73 L 546.31 42 Z  M 545.02 36.62 Q 544.03 35.74 543.14 35.74 Q 541.3 35.74 541.3 38.56 Q 541.3 41.04 542.93 41.04 Q 544 41.04 545.02 39.87 Z  M 556.73 41.1 Q 555.58 42.16 554.51 42.16 Q 553.63 42.16 553.05 41.61 Q 552.48 41.06 552.48 40.22 Q 552.48 39.07 553.45 38.45 Q 554.42 37.82 556.24 37.82 L 556.54 37.82 L 556.54 36.97 Q 556.54 35.74 555.28 35.74 Q 554.26 35.74 553.09 36.37 L 553.09 35.31 Q 554.38 34.78 555.51 34.78 Q 556.7 34.78 557.26 35.31 Q 557.82 35.85 557.82 36.97 L 557.82 40.17 Q 557.82 41.27 558.5 41.27 Q 558.58 41.27 558.75 41.25 L 558.84 41.95 Q 558.4 42.16 557.87 42.16 Q 556.98 42.16 556.73 41.1 Z  M 556.54 40.41 L 556.54 38.58 L 556.11 38.57 Q 555.06 38.57 554.41 38.97 Q 553.76 39.37 553.76 40.02 Q 553.76 40.48 554.08 40.8 Q 554.41 41.12 554.88 41.12 Q 555.68 41.12 556.54 40.41 Z  M 562.32 42.16 Q 561.44 42.16 560.18 41.75 L 560.18 40.58 Q 561.44 41.2 562.37 41.2 Q 562.92 41.2 563.29 40.9 Q 563.65 40.6 563.65 40.15 Q 563.65 39.5 562.63 39.07 L 561.88 38.75 Q 560.22 38.06 560.22 36.76 Q 560.22 35.84 560.88 35.31 Q 561.53 34.78 562.67 34.78 Q 563.26 34.78 564.13 34.94 L 564.4 35 L 564.4 36.06 Q 563.32 35.74 562.69 35.74 Q 561.46 35.74 561.46 36.64 Q 561.46 37.22 562.39 37.62 L 563.01 37.88 Q 564.06 38.32 564.5 38.81 Q 564.93 39.3 564.93 40.04 Q 564.93 40.97 564.2 41.56 Q 563.46 42.16 562.32 42.16 Z  M 574.21 42.16 Q 572.77 42.16 571.83 41.1 Q 570.89 40.04 570.89 38.43 Q 570.89 36.71 571.82 35.74 Q 572.76 34.78 574.43 34.78 Q 575.25 34.78 576.27 35.01 L 576.27 36.08 Q 575.19 35.76 574.5 35.76 Q 573.52 35.76 572.93 36.5 Q 572.33 37.24 572.33 38.47 Q 572.33 39.66 572.94 40.39 Q 573.55 41.13 574.54 41.13 Q 575.42 41.13 576.35 40.68 L 576.35 41.79 Q 575.11 42.16 574.21 42.16 Z  M 581.91 41.1 Q 580.76 42.16 579.69 42.16 Q 578.82 42.16 578.24 41.61 Q 577.66 41.06 577.66 40.22 Q 577.66 39.07 578.63 38.45 Q 579.6 37.82 581.42 37.82 L 581.72 37.82 L 581.72 36.97 Q 581.72 35.74 580.46 35.74 Q 579.45 35.74 578.27 36.37 L 578.27 35.31 Q 579.56 34.78 580.7 34.78 Q 581.88 34.78 582.44 35.31 Q 583.01 35.85 583.01 36.97 L 583.01 40.17 Q 583.01 41.27 583.68 41.27 Q 583.77 41.27 583.93 41.25 L 584.02 41.95 Q 583.58 42.16 583.06 42.16 Q 582.16 42.16 581.91 41.1 Z  M 581.72 40.41 L 581.72 38.58 L 581.29 38.57 Q 580.24 38.57 579.59 38.97 Q 578.94 39.37 578.94 40.02 Q 578.94 40.48 579.27 40.8 Q 579.59 41.12 580.06 41.12 Q 580.86 41.12 581.72 40.41 Z  M 585.63 42 L 585.63 34.94 L 586.91 34.94 L 586.91 36.26 Q 587.92 34.78 589.39 34.78 Q 590.31 34.78 590.86 35.36 Q 591.4 35.94 591.4 36.93 L 591.4 42 L 590.12 42 L 590.12 37.34 Q 590.12 36.56 589.89 36.22 Q 589.66 35.89 589.13 35.89 Q 587.95 35.89 586.91 37.43 L 586.91 42 Z  M 598.43 42 L 598.43 40.67 Q 597.65 42.16 596.07 42.16 Q 594.8 42.16 594.07 41.23 Q 593.33 40.3 593.33 38.69 Q 593.33 36.93 594.16 35.85 Q 594.99 34.78 596.34 34.78 Q 597.6 34.78 598.43 35.74 L 598.43 31.73 L 599.71 31.73 L 599.71 42 Z  M 598.43 36.62 Q 597.43 35.74 596.54 35.74 Q 594.7 35.74 594.7 38.56 Q 594.7 41.04 596.34 41.04 Q 597.4 41.04 598.43 39.87 Z  M 602.28 42 L 602.28 34.94 L 603.56 34.94 L 603.56 42 Z  M 602.28 33.66 L 602.28 32.37 L 603.56 32.37 L 603.56 33.66 Z  M 610.66 42 L 610.66 40.67 Q 609.88 42.16 608.31 42.16 Q 607.03 42.16 606.3 41.23 Q 605.57 40.3 605.57 38.69 Q 605.57 36.93 606.4 35.85 Q 607.23 34.78 608.58 34.78 Q 609.83 34.78 610.66 35.74 L 610.66 31.73 L 611.95 31.73 L 611.95 42 Z  M 610.66 36.62 Q 609.66 35.74 608.77 35.74 Q 606.93 35.74 606.93 38.56 Q 606.93 41.04 608.57 41.04 Q 609.64 41.04 610.66 39.87 Z  M 618.15 41.1 Q 617 42.16 615.93 42.16 Q 615.06 42.16 614.48 41.61 Q 613.9 41.06 613.9 40.22 Q 613.9 39.07 614.87 38.45 Q 615.84 37.82 617.66 37.82 L 617.96 37.82 L 617.96 36.97 Q 617.96 35.74 616.7 35.74 Q 615.69 35.74 614.51 36.37 L 614.51 35.31 Q 615.8 34.78 616.94 34.78 Q 618.12 34.78 618.68 35.31 Q 619.24 35.85 619.24 36.97 L 619.24 40.17 Q 619.24 41.27 619.92 41.27 Q 620.01 41.27 620.17 41.25 L 620.26 41.95 Q 619.82 42.16 619.3 42.16 Q 618.4 42.16 618.15 41.1 Z  M 617.96 40.41 L 617.96 38.58 L 617.53 38.57 Q 616.48 38.57 615.83 38.97 Q 615.18 39.37 615.18 40.02 Q 615.18 40.48 615.51 40.8 Q 615.83 41.12 616.3 41.12 Q 617.1 41.12 617.96 40.41 Z  M 623.99 42.16 Q 623.01 42.16 622.46 41.6 Q 621.92 41.04 621.92 40.05 L 621.92 35.9 L 621.03 35.9 L 621.03 34.94 L 621.92 34.94 L 621.92 33.66 L 623.2 33.53 L 623.2 34.94 L 625.05 34.94 L 625.05 35.9 L 623.2 35.9 L 623.2 39.81 Q 623.2 41.2 624.4 41.2 Q 624.65 41.2 625.01 41.12 L 625.01 42 Q 624.42 42.16 623.99 42.16 Z  M 632.03 41.77 Q 630.74 42.16 629.82 42.16 Q 628.26 42.16 627.27 41.13 Q 626.29 40.09 626.29 38.44 Q 626.29 36.83 627.16 35.8 Q 628.03 34.77 629.38 34.77 Q 630.66 34.77 631.36 35.68 Q 632.06 36.6 632.06 38.27 L 632.05 38.67 L 627.6 38.67 Q 627.88 41.19 630.06 41.19 Q 630.86 41.19 632.03 40.76 Z  M 627.65 37.71 L 630.77 37.71 Q 630.77 35.74 629.3 35.74 Q 627.82 35.74 627.65 37.71 Z  M 640.01 35.9 L 640.01 42 L 638.72 42 L 638.72 35.9 L 637.72 35.9 L 637.72 34.94 L 638.72 34.94 L 638.72 34.09 Q 638.72 31.57 641.03 31.57 Q 641.67 31.57 642.49 31.78 L 642.49 32.8 Q 641.62 32.53 641.1 32.53 Q 640.47 32.53 640.24 32.83 Q 640.01 33.14 640.01 33.95 L 640.01 34.94 L 641.77 34.94 L 641.77 35.9 Z  M 646.15 42.16 Q 644.63 42.16 643.73 41.16 Q 642.82 40.15 642.82 38.47 Q 642.82 36.76 643.73 35.77 Q 644.64 34.78 646.19 34.78 Q 647.75 34.78 648.65 35.77 Q 649.56 36.76 649.56 38.46 Q 649.56 40.19 648.65 41.17 Q 647.74 42.16 646.15 42.16 Z  M 646.16 41.2 Q 648.2 41.2 648.2 38.46 Q 648.2 35.74 646.19 35.74 Q 644.19 35.74 644.19 38.47 Q 644.19 41.2 646.16 41.2 Z  M 651.56 42 L 651.56 34.94 L 652.84 34.94 L 652.84 36.26 Q 653.61 34.78 655.06 34.78 Q 655.25 34.78 655.47 34.81 L 655.47 36.01 Q 655.13 35.9 654.88 35.9 Q 653.66 35.9 652.84 37.34 L 652.84 42 Z "/></g><g style="fill: rgb(0,0,0); fill-opacity: 1.0; stroke: none" clip-path="url(#_910871224645875clip-0)"><path d="M 520.28 60.57 L 520.28 50.94 L 521.56 50.94 L 521.56 52.26 Q 522.35 50.78 523.92 50.78 Q 525.2 50.78 525.93 51.71 Q 526.66 52.64 526.66 54.25 Q 526.66 56.01 525.83 57.09 Q 525 58.16 523.65 58.16 Q 522.4 58.16 521.56 57.2 L 521.56 60.57 Z  M 521.56 56.32 Q 522.55 57.2 523.45 57.2 Q 525.3 57.2 525.3 54.38 Q 525.3 51.9 523.66 51.9 Q 522.58 51.9 521.56 53.06 Z  M 528.66 58 L 528.66 50.94 L 529.95 50.94 L 529.95 52.26 Q 530.71 50.78 532.16 50.78 Q 532.35 50.78 532.57 50.81 L 532.57 52.01 Q 532.24 51.9 531.98 51.9 Q 530.77 51.9 529.95 53.34 L 529.95 58 Z  M 536.88 58.16 Q 535.36 58.16 534.46 57.16 Q 533.56 56.15 533.56 54.47 Q 533.56 52.76 534.46 51.77 Q 535.37 50.78 536.92 50.78 Q 538.48 50.78 539.39 51.77 Q 540.29 52.76 540.29 54.46 Q 540.29 56.19 539.38 57.17 Q 538.47 58.16 536.88 58.16 Z  M 536.9 57.2 Q 538.93 57.2 538.93 54.46 Q 538.93 51.74 536.92 51.74 Q 534.92 51.74 534.92 54.47 Q 534.92 57.2 536.9 57.2 Z  M 542.3 60.57 L 542.3 50.94 L 543.58 50.94 L 543.58 52.26 Q 544.37 50.78 545.94 50.78 Q 547.21 50.78 547.95 51.71 Q 548.68 52.64 548.68 54.25 Q 548.68 56.01 547.85 57.09 Q 547.02 58.16 545.67 58.16 Q 544.41 58.16 543.58 57.2 L 543.58 60.57 Z  M 543.58 56.32 Q 544.57 57.2 545.46 57.2 Q 547.31 57.2 547.31 54.38 Q 547.31 51.9 545.67 51.9 Q 544.6 51.9 543.58 53.06 Z  M 553.44 58.16 Q 551.93 58.16 551.03 57.16 Q 550.12 56.15 550.12 54.47 Q 550.12 52.76 551.03 51.77 Q 551.94 50.78 553.49 50.78 Q 555.04 50.78 555.95 51.77 Q 556.86 52.76 556.86 54.46 Q 556.86 56.19 555.95 57.17 Q 555.04 58.16 553.44 58.16 Z  M 553.46 57.2 Q 555.5 57.2 555.5 54.46 Q 555.5 51.74 553.49 51.74 Q 551.49 51.74 551.49 54.47 Q 551.49 57.2 553.46 57.2 Z  M 560.74 58.16 Q 559.86 58.16 558.6 57.75 L 558.6 56.58 Q 559.86 57.2 560.79 57.2 Q 561.34 57.2 561.7 56.9 Q 562.07 56.6 562.07 56.15 Q 562.07 55.5 561.05 55.07 L 560.3 54.75 Q 558.64 54.06 558.64 52.76 Q 558.64 51.84 559.29 51.31 Q 559.95 50.78 561.09 50.78 Q 561.68 50.78 562.55 50.94 L 562.82 51 L 562.82 52.06 Q 561.74 51.74 561.11 51.74 Q 559.88 51.74 559.88 52.64 Q 559.88 53.22 560.81 53.62 L 561.43 53.88 Q 562.48 54.32 562.91 54.81 Q 563.35 55.3 563.35 56.04 Q 563.35 56.97 562.62 57.56 Q 561.88 58.16 560.74 58.16 Z  M 570.83 57.77 Q 569.54 58.16 568.62 58.16 Q 567.06 58.16 566.08 57.13 Q 565.09 56.09 565.09 54.44 Q 565.09 52.83 565.96 51.8 Q 566.83 50.77 568.18 50.77 Q 569.46 50.77 570.16 51.68 Q 570.86 52.6 570.86 54.27 L 570.86 54.67 L 566.4 54.67 Q 566.68 57.19 568.87 57.19 Q 569.67 57.19 570.83 56.76 Z  M 566.46 53.71 L 569.57 53.71 Q 569.57 51.74 568.1 51.74 Q 566.63 51.74 566.46 53.71 Z  M 573.07 58 L 573.07 50.94 L 574.35 50.94 L 574.35 52.26 Q 575.12 50.78 576.57 50.78 Q 576.76 50.78 576.98 50.81 L 576.98 52.01 Q 576.64 51.9 576.39 51.9 Q 575.17 51.9 574.35 53.34 L 574.35 58 Z  M 587.27 58 L 587.27 56.67 Q 586.49 58.16 584.92 58.16 Q 583.64 58.16 582.91 57.23 Q 582.18 56.3 582.18 54.69 Q 582.18 52.93 583.01 51.85 Q 583.84 50.78 585.19 50.78 Q 586.45 50.78 587.27 51.74 L 587.27 47.73 L 588.56 47.73 L 588.56 58 Z  M 587.27 52.62 Q 586.28 51.74 585.39 51.74 Q 583.54 51.74 583.54 54.56 Q 583.54 57.04 585.18 57.04 Q 586.25 57.04 587.27 55.87 Z  M 595.54 58 L 595.54 56.67 Q 594.52 58.16 593.06 58.16 Q 592.14 58.16 591.59 57.58 Q 591.04 57 591.04 56.01 L 591.04 50.94 L 592.33 50.94 L 592.33 55.59 Q 592.33 56.39 592.56 56.72 Q 592.79 57.06 593.33 57.06 Q 594.5 57.06 595.54 55.52 L 595.54 50.94 L 596.82 50.94 L 596.82 58 Z  M 601.51 58.16 Q 600.53 58.16 599.99 57.6 Q 599.44 57.04 599.44 56.05 L 599.44 51.9 L 598.56 51.9 L 598.56 50.94 L 599.44 50.94 L 599.44 49.66 L 600.72 49.53 L 600.72 50.94 L 602.57 50.94 L 602.57 51.9 L 600.72 51.9 L 600.72 55.81 Q 600.72 57.2 601.92 57.2 Q 602.17 57.2 602.54 57.12 L 602.54 58 Q 601.94 58.16 601.51 58.16 Z  M 604.78 60.57 L 605.92 58 L 603.19 50.94 L 604.58 50.94 L 606.6 56.26 L 608.76 50.94 L 609.97 50.94 L 606.11 60.57 Z  M 618.11 59.04 L 618.11 59.93 Q 616.71 58.97 615.89 57.33 Q 615.06 55.68 615.06 53.82 Q 615.06 51.97 615.89 50.33 Q 616.71 48.69 618.11 47.73 L 618.11 48.61 Q 617.16 49.66 616.75 50.85 Q 616.34 52.05 616.34 53.82 Q 616.34 55.61 616.75 56.8 Q 617.16 58 618.11 59.04 Z  M 620.6 58 L 620.6 57.04 L 622.52 57.04 L 622.52 49.44 L 620.6 49.92 L 620.6 48.93 L 623.81 48.13 L 623.81 57.04 L 625.74 57.04 L 625.74 58 Z  M 627.5 59.04 L 627.5 59.93 Q 628.9 58.97 629.73 57.33 Q 630.55 55.68 630.55 53.82 Q 630.55 51.97 629.73 50.33 Q 628.9 48.69 627.5 47.73 L 627.5 48.61 Q 628.45 49.66 628.86 50.85 Q 629.27 52.05 629.27 53.82 Q 629.27 55.61 628.86 56.8 Q 628.45 58 627.5 59.04 Z "/></g><g style="fill: rgb(192,255,255); fill-opacity: 1.0; stroke: none" clip-path="url(#_910871224645875clip-0)"><path d="M 10 118 L 25 95 L 84 95 L 99 118 L 84 140 L 25 140 Z "/></g><g style="stroke-width: 1.0;stroke: rgb(0,0,0);stroke-opacity: 1.0;stroke-linecap: round;stroke-linejoin: round;; fill: none" clip-path="url(#_910871224645875clip-0)"><path d="M 10 118 L 25 95 L 84 95 L 99 118 L 84 140 L 25 140 Z "/></g><g style="fill: rgb(0,0,0); fill-opacity: 1.0; stroke: none" clip-path="url(#_910871224645875clip-0)"><path d="M 25.24 122 L 25.24 112.37 L 30.62 112.37 L 30.62 113.4 L 26.61 113.4 L 26.61 116.62 L 29.98 116.62 L 29.98 117.63 L 26.61 117.63 L 26.61 122 Z  M 37.26 118.32 L 35.62 114.17 L 33.98 118.32 Z  M 38.71 122 L 37.66 119.33 L 33.58 119.33 L 32.52 122 L 31.25 122 L 35.07 112.37 L 36.42 112.37 L 40.18 122 Z  M 46.15 122 L 46.15 120.67 Q 45.37 122.16 43.79 122.16 Q 42.52 122.16 41.78 121.23 Q 41.05 120.3 41.05 118.69 Q 41.05 116.93 41.88 115.85 Q 42.71 114.78 44.06 114.78 Q 45.32 114.78 46.15 115.74 L 46.15 111.73 L 47.43 111.73 L 47.43 122 Z  M 46.15 116.62 Q 45.15 115.74 44.26 115.74 Q 42.42 115.74 42.42 118.56 Q 42.42 121.04 44.06 121.04 Q 45.12 121.04 46.15 119.87 Z  M 47.71 124.4 L 47.71 123.39 Q 48.61 123.76 49.08 123.76 Q 49.76 123.76 49.98 123.41 Q 50.2 123.06 50.2 122 L 50.2 114.94 L 51.49 114.94 L 51.49 122 Q 51.49 124.73 49.18 124.73 Q 48.5 124.73 47.71 124.4 Z  M 50.2 113.66 L 50.2 112.37 L 51.49 112.37 L 51.49 113.66 Z  M 56.3 122 L 56.3 113.4 L 52.88 113.4 L 52.88 112.37 L 61.08 112.37 L 61.08 113.4 L 57.66 113.4 L 57.66 122 Z  M 65.23 122.16 Q 63.72 122.16 62.82 121.16 Q 61.91 120.15 61.91 118.47 Q 61.91 116.76 62.82 115.77 Q 63.73 114.78 65.28 114.78 Q 66.83 114.78 67.74 115.77 Q 68.65 116.76 68.65 118.46 Q 68.65 120.19 67.74 121.17 Q 66.83 122.16 65.23 122.16 Z  M 65.25 121.2 Q 67.29 121.2 67.29 118.46 Q 67.29 115.74 65.28 115.74 Q 63.28 115.74 63.28 118.47 Q 63.28 121.2 65.25 121.2 Z  M 72.77 122.16 Q 71.8 122.16 71.25 121.6 Q 70.7 121.04 70.7 120.05 L 70.7 115.9 L 69.82 115.9 L 69.82 114.94 L 70.7 114.94 L 70.7 113.66 L 71.99 113.53 L 71.99 114.94 L 73.83 114.94 L 73.83 115.9 L 71.99 115.9 L 71.99 119.81 Q 71.99 121.2 73.18 121.2 Q 73.44 121.2 73.8 121.12 L 73.8 122 Q 73.21 122.16 72.77 122.16 Z  M 79.28 121.1 Q 78.13 122.16 77.06 122.16 Q 76.18 122.16 75.6 121.61 Q 75.02 121.06 75.02 120.22 Q 75.02 119.07 76 118.45 Q 76.97 117.82 78.78 117.82 L 79.09 117.82 L 79.09 116.97 Q 79.09 115.74 77.83 115.74 Q 76.81 115.74 75.63 116.37 L 75.63 115.31 Q 76.93 114.78 78.06 114.78 Q 79.24 114.78 79.81 115.31 Q 80.37 115.85 80.37 116.97 L 80.37 120.17 Q 80.37 121.27 81.05 121.27 Q 81.13 121.27 81.29 121.25 L 81.38 121.95 Q 80.95 122.16 80.42 122.16 Q 79.52 122.16 79.28 121.1 Z  M 79.09 120.41 L 79.09 118.58 L 78.66 118.57 Q 77.61 118.57 76.95 118.97 Q 76.3 119.37 76.3 120.02 Q 76.3 120.48 76.63 120.8 Q 76.95 121.12 77.42 121.12 Q 78.22 121.12 79.09 120.41 Z  M 82.99 122 L 82.99 111.73 L 84.27 111.73 L 84.27 122 Z "/></g><g style="stroke-width: 1.0;stroke: rgb(0,0,0);stroke-opacity: 1.0;stroke-linecap: round;stroke-linejoin: round;; fill: none" clip-path="url(#_910871224645875clip-0)"><path d="M 13 118 L 26 98 L 83 98 L 96 118 L 83 137 L 26 137 Z "/></g><ellipse cx="414.5" cy="357.5" rx="88.5" ry="27.5" style="fill: rgb(255,255,192); fill-opacity: 1.0" clip-path="url(#_910871224645875clip-0)"/><ellipse cx="414" cy="357" rx="84" ry="23" style="stroke-width: 9.0;stroke: rgb(192,192,192);stroke-opacity: 1.0;stroke-linecap: round;stroke-linejoin: round;; fill: none" clip-path="url(#_910871224645875clip-0)"/><ellipse cx="414.5" cy="357.5" rx="88.5" ry="27.5" style="stroke-width: 1.0;stroke: rgb(0,0,0);stroke-opacity: 1.0;stroke-linecap: round;stroke-linejoin: round;; fill: none" clip-path="url(#_910871224645875clip-0)"/><g style="fill: rgb(0,0,0); fill-opacity: 1.0; stroke: none" clip-path="url(#_910871224645875clip-0)"><path d="M 371.87 346 L 368.23 336.37 L 369.6 336.37 L 372.58 344.26 L 375.45 336.37 L 376.65 336.37 L 373.16 346 Z  M 381.63 345.1 Q 380.48 346.16 379.41 346.16 Q 378.54 346.16 377.96 345.61 Q 377.38 345.06 377.38 344.22 Q 377.38 343.07 378.35 342.45 Q 379.32 341.82 381.14 341.82 L 381.44 341.82 L 381.44 340.97 Q 381.44 339.74 380.18 339.74 Q 379.17 339.74 377.99 340.37 L 377.99 339.31 Q 379.28 338.78 380.42 338.78 Q 381.6 338.78 382.16 339.31 Q 382.72 339.85 382.72 340.97 L 382.72 344.17 Q 382.72 345.27 383.4 345.27 Q 383.49 345.27 383.65 345.25 L 383.74 345.95 Q 383.3 346.16 382.78 346.16 Q 381.88 346.16 381.63 345.1 Z  M 381.44 344.41 L 381.44 342.58 L 381.01 342.57 Q 379.96 342.57 379.31 342.97 Q 378.66 343.37 378.66 344.02 Q 378.66 344.48 378.99 344.8 Q 379.31 345.12 379.78 345.12 Q 380.58 345.12 381.44 344.41 Z  M 385.35 346 L 385.35 335.73 L 386.63 335.73 L 386.63 346 Z  M 389.2 346 L 389.2 338.94 L 390.48 338.94 L 390.48 346 Z  M 389.2 337.66 L 389.2 336.37 L 390.48 336.37 L 390.48 337.66 Z  M 397.58 346 L 397.58 344.67 Q 396.8 346.16 395.23 346.16 Q 393.95 346.16 393.22 345.23 Q 392.49 344.3 392.49 342.69 Q 392.49 340.93 393.32 339.85 Q 394.15 338.78 395.5 338.78 Q 396.75 338.78 397.58 339.74 L 397.58 335.73 L 398.87 335.73 L 398.87 346 Z  M 397.58 340.62 Q 396.58 339.74 395.69 339.74 Q 393.85 339.74 393.85 342.56 Q 393.85 345.04 395.49 345.04 Q 396.56 345.04 397.58 343.87 Z  M 405.07 345.1 Q 403.92 346.16 402.85 346.16 Q 401.98 346.16 401.4 345.61 Q 400.82 345.06 400.82 344.22 Q 400.82 343.07 401.79 342.45 Q 402.76 341.82 404.58 341.82 L 404.88 341.82 L 404.88 340.97 Q 404.88 339.74 403.62 339.74 Q 402.61 339.74 401.43 340.37 L 401.43 339.31 Q 402.72 338.78 403.86 338.78 Q 405.04 338.78 405.6 339.31 Q 406.16 339.85 406.16 340.97 L 406.16 344.17 Q 406.16 345.27 406.84 345.27 Q 406.93 345.27 407.09 345.25 L 407.18 345.95 Q 406.74 346.16 406.22 346.16 Q 405.32 346.16 405.07 345.1 Z  M 404.88 344.41 L 404.88 342.58 L 404.45 342.57 Q 403.4 342.57 402.75 342.97 Q 402.1 343.37 402.1 344.02 Q 402.1 344.48 402.43 344.8 Q 402.75 345.12 403.22 345.12 Q 404.02 345.12 404.88 344.41 Z  M 410.91 346.16 Q 409.93 346.16 409.38 345.6 Q 408.84 345.04 408.84 344.05 L 408.84 339.9 L 407.95 339.9 L 407.95 338.94 L 408.84 338.94 L 408.84 337.66 L 410.12 337.53 L 410.12 338.94 L 411.97 338.94 L 411.97 339.9 L 410.12 339.9 L 410.12 343.81 Q 410.12 345.2 411.32 345.2 Q 411.57 345.2 411.93 345.12 L 411.93 346 Q 411.34 346.16 410.91 346.16 Z  M 416.53 346.16 Q 415.02 346.16 414.11 345.16 Q 413.21 344.15 413.21 342.47 Q 413.21 340.76 414.12 339.77 Q 415.02 338.78 416.58 338.78 Q 418.13 338.78 419.04 339.77 Q 419.95 340.76 419.95 342.46 Q 419.95 344.19 419.04 345.17 Q 418.13 346.16 416.53 346.16 Z  M 416.55 345.2 Q 418.59 345.2 418.59 342.46 Q 418.59 339.74 416.58 339.74 Q 414.57 339.74 414.57 342.47 Q 414.57 345.2 416.55 345.2 Z  M 421.95 346 L 421.95 338.94 L 423.23 338.94 L 423.23 340.26 Q 423.99 338.78 425.44 338.78 Q 425.64 338.78 425.85 338.81 L 425.85 340.01 Q 425.52 339.9 425.27 339.9 Q 424.05 339.9 423.23 341.34 L 423.23 346 Z  M 433.73 346.16 Q 432.76 346.16 432.21 345.6 Q 431.67 345.04 431.67 344.05 L 431.67 339.9 L 430.78 339.9 L 430.78 338.94 L 431.67 338.94 L 431.67 337.66 L 432.95 337.53 L 432.95 338.94 L 434.8 338.94 L 434.8 339.9 L 432.95 339.9 L 432.95 343.81 Q 432.95 345.2 434.14 345.2 Q 434.4 345.2 434.76 345.12 L 434.76 346 Q 434.17 346.16 433.73 346.16 Z  M 437.01 348.57 L 438.15 346 L 435.42 338.94 L 436.8 338.94 L 438.83 344.26 L 440.99 338.94 L 442.2 338.94 L 438.34 348.57 Z  M 443.56 348.57 L 443.56 338.94 L 444.84 338.94 L 444.84 340.26 Q 445.62 338.78 447.2 338.78 Q 448.47 338.78 449.2 339.71 Q 449.94 340.64 449.94 342.25 Q 449.94 344.01 449.11 345.09 Q 448.28 346.16 446.92 346.16 Q 445.67 346.16 444.84 345.2 L 444.84 348.57 Z  M 444.84 344.32 Q 445.83 345.2 446.72 345.2 Q 448.57 345.2 448.57 342.38 Q 448.57 339.9 446.93 339.9 Q 445.86 339.9 444.84 341.06 Z  M 457.12 345.77 Q 455.83 346.16 454.91 346.16 Q 453.35 346.16 452.37 345.13 Q 451.38 344.09 451.38 342.44 Q 451.38 340.83 452.25 339.8 Q 453.12 338.77 454.47 338.77 Q 455.75 338.77 456.45 339.68 Q 457.15 340.6 457.15 342.27 L 457.14 342.67 L 452.69 342.67 Q 452.97 345.19 455.15 345.19 Q 455.95 345.19 457.12 344.76 Z  M 452.75 341.71 L 455.86 341.71 Q 455.86 339.74 454.39 339.74 Q 452.92 339.74 452.75 341.71 Z "/></g><g style="fill: rgb(0,0,0); fill-opacity: 1.0; stroke: none" clip-path="url(#_910871224645875clip-0)"><path d="M 337.65 362.16 Q 336.78 362.16 335.52 361.75 L 335.52 360.58 Q 336.78 361.2 337.71 361.2 Q 338.26 361.2 338.62 360.9 Q 338.99 360.6 338.99 360.15 Q 338.99 359.5 337.97 359.07 L 337.22 358.75 Q 335.56 358.06 335.56 356.76 Q 335.56 355.84 336.21 355.31 Q 336.87 354.78 338.01 354.78 Q 338.6 354.78 339.47 354.94 L 339.74 355 L 339.74 356.06 Q 338.66 355.74 338.03 355.74 Q 336.8 355.74 336.8 356.64 Q 336.8 357.22 337.73 357.62 L 338.35 357.88 Q 339.4 358.32 339.83 358.81 Q 340.27 359.3 340.27 360.04 Q 340.27 360.97 339.53 361.56 Q 338.8 362.16 337.65 362.16 Z  M 347.75 361.77 Q 346.46 362.16 345.54 362.16 Q 343.98 362.16 343 361.13 Q 342.01 360.09 342.01 358.44 Q 342.01 356.83 342.88 355.8 Q 343.75 354.77 345.1 354.77 Q 346.38 354.77 347.08 355.68 Q 347.78 356.6 347.78 358.27 L 347.77 358.67 L 343.32 358.67 Q 343.6 361.19 345.78 361.19 Q 346.58 361.19 347.75 360.76 Z  M 343.38 357.71 L 346.49 357.71 Q 346.49 355.74 345.02 355.74 Q 343.55 355.74 343.38 357.71 Z  M 349.99 362 L 349.99 351.73 L 351.27 351.73 L 351.27 362 Z  M 359.02 361.77 Q 357.73 362.16 356.81 362.16 Q 355.25 362.16 354.27 361.13 Q 353.28 360.09 353.28 358.44 Q 353.28 356.83 354.15 355.8 Q 355.02 354.77 356.37 354.77 Q 357.65 354.77 358.35 355.68 Q 359.05 356.6 359.05 358.27 L 359.05 358.67 L 354.59 358.67 Q 354.87 361.19 357.06 361.19 Q 357.86 361.19 359.02 360.76 Z  M 354.65 357.71 L 357.76 357.71 Q 357.76 355.74 356.29 355.74 Q 354.82 355.74 354.65 357.71 Z  M 364.02 362.16 Q 362.59 362.16 361.65 361.1 Q 360.7 360.04 360.7 358.43 Q 360.7 356.71 361.64 355.74 Q 362.57 354.78 364.24 354.78 Q 365.07 354.78 366.09 355.01 L 366.09 356.08 Q 365 355.76 364.32 355.76 Q 363.34 355.76 362.74 356.5 Q 362.15 357.24 362.15 358.47 Q 362.15 359.66 362.76 360.39 Q 363.37 361.13 364.36 361.13 Q 365.24 361.13 366.17 360.68 L 366.17 361.79 Q 364.93 362.16 364.02 362.16 Z  M 370.21 362.16 Q 369.23 362.16 368.68 361.6 Q 368.14 361.04 368.14 360.05 L 368.14 355.9 L 367.25 355.9 L 367.25 354.94 L 368.14 354.94 L 368.14 353.66 L 369.42 353.53 L 369.42 354.94 L 371.27 354.94 L 371.27 355.9 L 369.42 355.9 L 369.42 359.81 Q 369.42 361.2 370.62 361.2 Q 370.87 361.2 371.23 361.12 L 371.23 362 Q 370.64 362.16 370.21 362.16 Z  M 378.25 361.77 Q 376.96 362.16 376.04 362.16 Q 374.48 362.16 373.49 361.13 Q 372.51 360.09 372.51 358.44 Q 372.51 356.83 373.38 355.8 Q 374.25 354.77 375.6 354.77 Q 376.88 354.77 377.58 355.68 Q 378.28 356.6 378.28 358.27 L 378.27 358.67 L 373.82 358.67 Q 374.1 361.19 376.28 361.19 Q 377.08 361.19 378.25 360.76 Z  M 373.87 357.71 L 376.99 357.71 Q 376.99 355.74 375.52 355.74 Q 374.04 355.74 373.87 357.71 Z  M 385.02 362 L 385.02 360.67 Q 384.24 362.16 382.67 362.16 Q 381.39 362.16 380.66 361.23 Q 379.93 360.3 379.93 358.69 Q 379.93 356.93 380.76 355.85 Q 381.59 354.78 382.94 354.78 Q 384.2 354.78 385.02 355.74 L 385.02 351.73 L 386.31 351.73 L 386.31 362 Z  M 385.02 356.62 Q 384.03 355.74 383.14 355.74 Q 381.3 355.74 381.3 358.56 Q 381.3 361.04 382.93 361.04 Q 384 361.04 385.02 359.87 Z  M 396.73 361.1 Q 395.58 362.16 394.51 362.16 Q 393.63 362.16 393.05 361.61 Q 392.48 361.06 392.48 360.22 Q 392.48 359.07 393.45 358.45 Q 394.42 357.82 396.24 357.82 L 396.54 357.82 L 396.54 356.97 Q 396.54 355.74 395.28 355.74 Q 394.26 355.74 393.09 356.37 L 393.09 355.31 Q 394.38 354.78 395.51 354.78 Q 396.7 354.78 397.26 355.31 Q 397.82 355.85 397.82 356.97 L 397.82 360.17 Q 397.82 361.27 398.5 361.27 Q 398.58 361.27 398.75 361.25 L 398.84 361.95 Q 398.4 362.16 397.87 362.16 Q 396.98 362.16 396.73 361.1 Z  M 396.54 360.41 L 396.54 358.58 L 396.11 358.57 Q 395.06 358.57 394.41 358.97 Q 393.76 359.37 393.76 360.02 Q 393.76 360.48 394.08 360.8 Q 394.41 361.12 394.88 361.12 Q 395.68 361.12 396.54 360.41 Z  M 402.32 362.16 Q 401.44 362.16 400.18 361.75 L 400.18 360.58 Q 401.44 361.2 402.37 361.2 Q 402.92 361.2 403.29 360.9 Q 403.65 360.6 403.65 360.15 Q 403.65 359.5 402.63 359.07 L 401.88 358.75 Q 400.22 358.06 400.22 356.76 Q 400.22 355.84 400.88 355.31 Q 401.53 354.78 402.67 354.78 Q 403.26 354.78 404.13 354.94 L 404.4 355 L 404.4 356.06 Q 403.32 355.74 402.69 355.74 Q 401.46 355.74 401.46 356.64 Q 401.46 357.22 402.39 357.62 L 403.01 357.88 Q 404.06 358.32 404.5 358.81 Q 404.93 359.3 404.93 360.04 Q 404.93 360.97 404.2 361.56 Q 403.46 362.16 402.32 362.16 Z  M 414.21 362.16 Q 412.77 362.16 411.83 361.1 Q 410.89 360.04 410.89 358.43 Q 410.89 356.71 411.82 355.74 Q 412.76 354.78 414.43 354.78 Q 415.25 354.78 416.27 355.01 L 416.27 356.08 Q 415.19 355.76 414.5 355.76 Q 413.52 355.76 412.93 356.5 Q 412.33 357.24 412.33 358.47 Q 412.33 359.66 412.94 360.39 Q 413.55 361.13 414.54 361.13 Q 415.42 361.13 416.35 360.68 L 416.35 361.79 Q 415.11 362.16 414.21 362.16 Z  M 421.91 361.1 Q 420.76 362.16 419.69 362.16 Q 418.82 362.16 418.24 361.61 Q 417.66 361.06 417.66 360.22 Q 417.66 359.07 418.63 358.45 Q 419.6 357.82 421.42 357.82 L 421.72 357.82 L 421.72 356.97 Q 421.72 355.74 420.46 355.74 Q 419.45 355.74 418.27 356.37 L 418.27 355.31 Q 419.56 354.78 420.7 354.78 Q 421.88 354.78 422.44 355.31 Q 423.01 355.85 423.01 356.97 L 423.01 360.17 Q 423.01 361.27 423.68 361.27 Q 423.77 361.27 423.93 361.25 L 424.02 361.95 Q 423.58 362.16 423.06 362.16 Q 422.16 362.16 421.91 361.1 Z  M 421.72 360.41 L 421.72 358.58 L 421.29 358.57 Q 420.24 358.57 419.59 358.97 Q 418.94 359.37 418.94 360.02 Q 418.94 360.48 419.27 360.8 Q 419.59 361.12 420.06 361.12 Q 420.86 361.12 421.72 360.41 Z  M 425.63 362 L 425.63 354.94 L 426.91 354.94 L 426.91 356.26 Q 427.92 354.78 429.39 354.78 Q 430.31 354.78 430.86 355.36 Q 431.4 355.94 431.4 356.93 L 431.4 362 L 430.12 362 L 430.12 357.34 Q 430.12 356.56 429.89 356.22 Q 429.66 355.89 429.13 355.89 Q 427.95 355.89 426.91 357.43 L 426.91 362 Z  M 438.43 362 L 438.43 360.67 Q 437.65 362.16 436.07 362.16 Q 434.8 362.16 434.07 361.23 Q 433.33 360.3 433.33 358.69 Q 433.33 356.93 434.16 355.85 Q 434.99 354.78 436.34 354.78 Q 437.6 354.78 438.43 355.74 L 438.43 351.73 L 439.71 351.73 L 439.71 362 Z  M 438.43 356.62 Q 437.43 355.74 436.54 355.74 Q 434.7 355.74 434.7 358.56 Q 434.7 361.04 436.34 361.04 Q 437.4 361.04 438.43 359.87 Z  M 442.28 362 L 442.28 354.94 L 443.56 354.94 L 443.56 362 Z  M 442.28 353.66 L 442.28 352.37 L 443.56 352.37 L 443.56 353.66 Z  M 450.66 362 L 450.66 360.67 Q 449.88 362.16 448.31 362.16 Q 447.03 362.16 446.3 361.23 Q 445.57 360.3 445.57 358.69 Q 445.57 356.93 446.4 355.85 Q 447.23 354.78 448.58 354.78 Q 449.83 354.78 450.66 355.74 L 450.66 351.73 L 451.95 351.73 L 451.95 362 Z  M 450.66 356.62 Q 449.66 355.74 448.77 355.74 Q 446.93 355.74 446.93 358.56 Q 446.93 361.04 448.57 361.04 Q 449.64 361.04 450.66 359.87 Z  M 458.15 361.1 Q 457 362.16 455.93 362.16 Q 455.06 362.16 454.48 361.61 Q 453.9 361.06 453.9 360.22 Q 453.9 359.07 454.87 358.45 Q 455.84 357.82 457.66 357.82 L 457.96 357.82 L 457.96 356.97 Q 457.96 355.74 456.7 355.74 Q 455.69 355.74 454.51 356.37 L 454.51 355.31 Q 455.8 354.78 456.94 354.78 Q 458.12 354.78 458.68 355.31 Q 459.24 355.85 459.24 356.97 L 459.24 360.17 Q 459.24 361.27 459.92 361.27 Q 460.01 361.27 460.17 361.25 L 460.26 361.95 Q 459.82 362.16 459.3 362.16 Q 458.4 362.16 458.15 361.1 Z  M 457.96 360.41 L 457.96 358.58 L 457.53 358.57 Q 456.48 358.57 455.83 358.97 Q 455.18 359.37 455.18 360.02 Q 455.18 360.48 455.51 360.8 Q 455.83 361.12 456.3 361.12 Q 457.1 361.12 457.96 360.41 Z  M 463.99 362.16 Q 463.01 362.16 462.46 361.6 Q 461.92 361.04 461.92 360.05 L 461.92 355.9 L 461.03 355.9 L 461.03 354.94 L 461.92 354.94 L 461.92 353.66 L 463.2 353.53 L 463.2 354.94 L 465.05 354.94 L 465.05 355.9 L 463.2 355.9 L 463.2 359.81 Q 463.2 361.2 464.4 361.2 Q 464.65 361.2 465.01 361.12 L 465.01 362 Q 464.42 362.16 463.99 362.16 Z  M 472.03 361.77 Q 470.74 362.16 469.82 362.16 Q 468.26 362.16 467.27 361.13 Q 466.29 360.09 466.29 358.44 Q 466.29 356.83 467.16 355.8 Q 468.03 354.77 469.38 354.77 Q 470.66 354.77 471.36 355.68 Q 472.06 356.6 472.06 358.27 L 472.05 358.67 L 467.6 358.67 Q 467.88 361.19 470.06 361.19 Q 470.86 361.19 472.03 360.76 Z  M 467.65 357.71 L 470.77 357.71 Q 470.77 355.74 469.3 355.74 Q 467.82 355.74 467.65 357.71 Z  M 480.01 355.9 L 480.01 362 L 478.72 362 L 478.72 355.9 L 477.72 355.9 L 477.72 354.94 L 478.72 354.94 L 478.72 354.09 Q 478.72 351.57 481.03 351.57 Q 481.67 351.57 482.49 351.78 L 482.49 352.8 Q 481.62 352.53 481.1 352.53 Q 480.47 352.53 480.24 352.83 Q 480.01 353.14 480.01 353.95 L 480.01 354.94 L 481.77 354.94 L 481.77 355.9 Z  M 486.15 362.16 Q 484.63 362.16 483.73 361.16 Q 482.82 360.15 482.82 358.47 Q 482.82 356.76 483.73 355.77 Q 484.64 354.78 486.19 354.78 Q 487.75 354.78 488.65 355.77 Q 489.56 356.76 489.56 358.46 Q 489.56 360.19 488.65 361.17 Q 487.74 362.16 486.15 362.16 Z  M 486.16 361.2 Q 488.2 361.2 488.2 358.46 Q 488.2 355.74 486.19 355.74 Q 484.19 355.74 484.19 358.47 Q 484.19 361.2 486.16 361.2 Z  M 491.56 362 L 491.56 354.94 L 492.84 354.94 L 492.84 356.26 Q 493.61 354.78 495.06 354.78 Q 495.25 354.78 495.47 354.81 L 495.47 356.01 Q 495.13 355.9 494.88 355.9 Q 493.66 355.9 492.84 357.34 L 492.84 362 Z "/></g><g style="fill: rgb(0,0,0); fill-opacity: 1.0; stroke: none" clip-path="url(#_910871224645875clip-0)"><path d="M 370.78 380.57 L 370.78 370.94 L 372.06 370.94 L 372.06 372.26 Q 372.85 370.78 374.42 370.78 Q 375.7 370.78 376.43 371.71 Q 377.16 372.64 377.16 374.25 Q 377.16 376.01 376.33 377.09 Q 375.5 378.16 374.15 378.16 Q 372.9 378.16 372.06 377.2 L 372.06 380.57 Z  M 372.06 376.32 Q 373.05 377.2 373.95 377.2 Q 375.8 377.2 375.8 374.38 Q 375.8 371.9 374.16 371.9 Q 373.08 371.9 372.06 373.06 Z  M 379.16 378 L 379.16 370.94 L 380.45 370.94 L 380.45 372.26 Q 381.21 370.78 382.66 370.78 Q 382.85 370.78 383.07 370.81 L 383.07 372.01 Q 382.74 371.9 382.48 371.9 Q 381.27 371.9 380.45 373.34 L 380.45 378 Z  M 387.38 378.16 Q 385.86 378.16 384.96 377.16 Q 384.06 376.15 384.06 374.47 Q 384.06 372.76 384.96 371.77 Q 385.87 370.78 387.42 370.78 Q 388.98 370.78 389.89 371.77 Q 390.79 372.76 390.79 374.46 Q 390.79 376.19 389.88 377.17 Q 388.97 378.16 387.38 378.16 Z  M 387.4 377.2 Q 389.43 377.2 389.43 374.46 Q 389.43 371.74 387.42 371.74 Q 385.42 371.74 385.42 374.47 Q 385.42 377.2 387.4 377.2 Z  M 392.8 380.57 L 392.8 370.94 L 394.08 370.94 L 394.08 372.26 Q 394.87 370.78 396.44 370.78 Q 397.71 370.78 398.45 371.71 Q 399.18 372.64 399.18 374.25 Q 399.18 376.01 398.35 377.09 Q 397.52 378.16 396.17 378.16 Q 394.91 378.16 394.08 377.2 L 394.08 380.57 Z  M 394.08 376.32 Q 395.07 377.2 395.96 377.2 Q 397.81 377.2 397.81 374.38 Q 397.81 371.9 396.17 371.9 Q 395.1 371.9 394.08 373.06 Z  M 403.94 378.16 Q 402.43 378.16 401.53 377.16 Q 400.62 376.15 400.62 374.47 Q 400.62 372.76 401.53 371.77 Q 402.44 370.78 403.99 370.78 Q 405.54 370.78 406.45 371.77 Q 407.36 372.76 407.36 374.46 Q 407.36 376.19 406.45 377.17 Q 405.54 378.16 403.94 378.16 Z  M 403.96 377.2 Q 406 377.2 406 374.46 Q 406 371.74 403.99 371.74 Q 401.99 371.74 401.99 374.47 Q 401.99 377.2 403.96 377.2 Z  M 411.24 378.16 Q 410.36 378.16 409.1 377.75 L 409.1 376.58 Q 410.36 377.2 411.29 377.2 Q 411.84 377.2 412.2 376.9 Q 412.57 376.6 412.57 376.15 Q 412.57 375.5 411.55 375.07 L 410.8 374.75 Q 409.14 374.06 409.14 372.76 Q 409.14 371.84 409.79 371.31 Q 410.45 370.78 411.59 370.78 Q 412.18 370.78 413.05 370.94 L 413.32 371 L 413.32 372.06 Q 412.24 371.74 411.61 371.74 Q 410.38 371.74 410.38 372.64 Q 410.38 373.22 411.31 373.62 L 411.93 373.88 Q 412.98 374.32 413.41 374.81 Q 413.85 375.3 413.85 376.04 Q 413.85 376.97 413.12 377.56 Q 412.38 378.16 411.24 378.16 Z  M 421.33 377.77 Q 420.04 378.16 419.12 378.16 Q 417.56 378.16 416.58 377.13 Q 415.59 376.09 415.59 374.44 Q 415.59 372.83 416.46 371.8 Q 417.33 370.77 418.68 370.77 Q 419.96 370.77 420.66 371.68 Q 421.36 372.6 421.36 374.27 L 421.36 374.67 L 416.9 374.67 Q 417.18 377.19 419.37 377.19 Q 420.17 377.19 421.33 376.76 Z  M 416.96 373.71 L 420.07 373.71 Q 420.07 371.74 418.6 371.74 Q 417.13 371.74 416.96 373.71 Z  M 423.57 378 L 423.57 370.94 L 424.85 370.94 L 424.85 372.26 Q 425.62 370.78 427.07 370.78 Q 427.26 370.78 427.48 370.81 L 427.48 372.01 Q 427.14 371.9 426.89 371.9 Q 425.67 371.9 424.85 373.34 L 424.85 378 Z  M 437.77 378 L 437.77 376.67 Q 436.99 378.16 435.42 378.16 Q 434.14 378.16 433.41 377.23 Q 432.68 376.3 432.68 374.69 Q 432.68 372.93 433.51 371.85 Q 434.34 370.78 435.69 370.78 Q 436.95 370.78 437.77 371.74 L 437.77 367.73 L 439.06 367.73 L 439.06 378 Z  M 437.77 372.62 Q 436.78 371.74 435.89 371.74 Q 434.04 371.74 434.04 374.56 Q 434.04 377.04 435.68 377.04 Q 436.75 377.04 437.77 375.87 Z  M 446.04 378 L 446.04 376.67 Q 445.02 378.16 443.56 378.16 Q 442.64 378.16 442.09 377.58 Q 441.54 377 441.54 376.01 L 441.54 370.94 L 442.83 370.94 L 442.83 375.59 Q 442.83 376.39 443.06 376.72 Q 443.29 377.06 443.83 377.06 Q 445 377.06 446.04 375.52 L 446.04 370.94 L 447.32 370.94 L 447.32 378 Z  M 452.01 378.16 Q 451.03 378.16 450.49 377.6 Q 449.94 377.04 449.94 376.05 L 449.94 371.9 L 449.06 371.9 L 449.06 370.94 L 449.94 370.94 L 449.94 369.66 L 451.22 369.53 L 451.22 370.94 L 453.07 370.94 L 453.07 371.9 L 451.22 371.9 L 451.22 375.81 Q 451.22 377.2 452.42 377.2 Q 452.67 377.2 453.04 377.12 L 453.04 378 Q 452.44 378.16 452.01 378.16 Z  M 455.28 380.57 L 456.42 378 L 453.69 370.94 L 455.08 370.94 L 457.1 376.26 L 459.26 370.94 L 460.47 370.94 L 456.61 380.57 Z "/></g><ellipse cx="380.5" cy="97" rx="88.5" ry="33" style="fill: rgb(255,255,192); fill-opacity: 1.0" clip-path="url(#_910871224645875clip-0)"/><ellipse cx="380" cy="96.5" rx="84" ry="28.5" style="stroke-width: 9.0;stroke: rgb(192,192,192);stroke-opacity: 1.0;stroke-linecap: round;stroke-linejoin: round;; fill: none" clip-path="url(#_910871224645875clip-0)"/><ellipse cx="380.5" cy="97" rx="88.5" ry="33" style="stroke-width: 1.0;stroke: rgb(0,0,0);stroke-opacity: 1.0;stroke-linejoin: bevel;stroke-dasharray: 6.0, 6.0;; fill: none" clip-path="url(#_910871224645875clip-0)"/><g style="fill: rgb(0,0,0); fill-opacity: 1.0; stroke: none" clip-path="url(#_910871224645875clip-0)"><path d="M 341.87 94.24 Q 339.62 94.24 338.4 92.92 Q 337.18 91.61 337.18 89.19 Q 337.18 86.79 338.42 85.46 Q 339.67 84.13 341.93 84.13 Q 343.23 84.13 344.96 84.56 L 344.96 85.84 Q 342.98 85.15 341.91 85.15 Q 340.34 85.15 339.49 86.21 Q 338.63 87.27 338.63 89.21 Q 338.63 91.05 339.54 92.11 Q 340.46 93.17 342.05 93.17 Q 343.41 93.17 344.97 92.33 L 344.97 93.51 Q 343.55 94.24 341.87 94.24 Z  M 349.76 94.16 Q 348.25 94.16 347.34 93.16 Q 346.44 92.15 346.44 90.47 Q 346.44 88.76 347.35 87.77 Q 348.25 86.78 349.81 86.78 Q 351.36 86.78 352.27 87.77 Q 353.18 88.76 353.18 90.46 Q 353.18 92.19 352.27 93.17 Q 351.35 94.16 349.76 94.16 Z  M 349.78 93.2 Q 351.82 93.2 351.82 90.46 Q 351.82 87.74 349.81 87.74 Q 347.8 87.74 347.8 90.47 Q 347.8 93.2 349.78 93.2 Z  M 355.18 94 L 355.18 86.94 L 356.46 86.94 L 356.46 88.26 Q 357.48 86.78 358.94 86.78 Q 359.86 86.78 360.41 87.36 Q 360.95 87.94 360.95 88.93 L 360.95 94 L 359.67 94 L 359.67 89.34 Q 359.67 88.56 359.44 88.22 Q 359.21 87.89 358.68 87.89 Q 357.5 87.89 356.46 89.43 L 356.46 94 Z  M 365.32 94.16 Q 364.44 94.16 363.19 93.75 L 363.19 92.58 Q 364.44 93.2 365.37 93.2 Q 365.92 93.2 366.29 92.9 Q 366.65 92.6 366.65 92.15 Q 366.65 91.5 365.63 91.07 L 364.88 90.75 Q 363.22 90.06 363.22 88.76 Q 363.22 87.84 363.88 87.31 Q 364.53 86.78 365.67 86.78 Q 366.26 86.78 367.13 86.94 L 367.4 87 L 367.4 88.06 Q 366.33 87.74 365.7 87.74 Q 364.46 87.74 364.46 88.64 Q 364.46 89.22 365.4 89.62 L 366.01 89.88 Q 367.06 90.32 367.5 90.81 Q 367.93 91.3 367.93 92.04 Q 367.93 92.97 367.2 93.56 Q 366.46 94.16 365.32 94.16 Z  M 373 94.16 Q 371.48 94.16 370.58 93.16 Q 369.68 92.15 369.68 90.47 Q 369.68 88.76 370.58 87.77 Q 371.49 86.78 373.05 86.78 Q 374.6 86.78 375.51 87.77 Q 376.41 88.76 376.41 90.46 Q 376.41 92.19 375.5 93.17 Q 374.59 94.16 373 94.16 Z  M 373.02 93.2 Q 375.06 93.2 375.06 90.46 Q 375.06 87.74 373.05 87.74 Q 371.04 87.74 371.04 90.47 Q 371.04 93.2 373.02 93.2 Z  M 378.42 94 L 378.42 83.73 L 379.7 83.73 L 379.7 94 Z  M 382.27 94 L 382.27 86.94 L 383.55 86.94 L 383.55 94 Z  M 382.27 85.66 L 382.27 84.37 L 383.55 84.37 L 383.55 85.66 Z  M 390.65 94 L 390.65 92.67 Q 389.87 94.16 388.3 94.16 Q 387.02 94.16 386.29 93.23 Q 385.56 92.3 385.56 90.69 Q 385.56 88.93 386.39 87.85 Q 387.22 86.78 388.57 86.78 Q 389.83 86.78 390.65 87.74 L 390.65 83.73 L 391.94 83.73 L 391.94 94 Z  M 390.65 88.62 Q 389.66 87.74 388.77 87.74 Q 386.92 87.74 386.92 90.56 Q 386.92 93.04 388.56 93.04 Q 389.63 93.04 390.65 91.87 Z  M 398.14 93.1 Q 396.99 94.16 395.93 94.16 Q 395.05 94.16 394.47 93.61 Q 393.89 93.06 393.89 92.22 Q 393.89 91.07 394.86 90.45 Q 395.84 89.82 397.65 89.82 L 397.96 89.82 L 397.96 88.97 Q 397.96 87.74 396.69 87.74 Q 395.68 87.74 394.5 88.37 L 394.5 87.31 Q 395.8 86.78 396.93 86.78 Q 398.11 86.78 398.67 87.31 Q 399.24 87.85 399.24 88.97 L 399.24 92.17 Q 399.24 93.27 399.91 93.27 Q 400 93.27 400.16 93.25 L 400.25 93.95 Q 399.82 94.16 399.29 94.16 Q 398.39 94.16 398.14 93.1 Z  M 397.96 92.41 L 397.96 90.58 L 397.53 90.57 Q 396.47 90.57 395.82 90.97 Q 395.17 91.37 395.17 92.02 Q 395.17 92.48 395.5 92.8 Q 395.82 93.12 396.29 93.12 Q 397.09 93.12 397.96 92.41 Z  M 403.98 94.16 Q 403 94.16 402.46 93.6 Q 401.91 93.04 401.91 92.05 L 401.91 87.9 L 401.03 87.9 L 401.03 86.94 L 401.91 86.94 L 401.91 85.66 L 403.19 85.53 L 403.19 86.94 L 405.04 86.94 L 405.04 87.9 L 403.19 87.9 L 403.19 91.81 Q 403.19 93.2 404.39 93.2 Q 404.64 93.2 405.01 93.12 L 405.01 94 Q 404.41 94.16 403.98 94.16 Z  M 412.02 93.77 Q 410.73 94.16 409.81 94.16 Q 408.25 94.16 407.27 93.13 Q 406.28 92.09 406.28 90.44 Q 406.28 88.83 407.15 87.8 Q 408.02 86.77 409.37 86.77 Q 410.65 86.77 411.35 87.68 Q 412.05 88.6 412.05 90.27 L 412.04 90.67 L 407.59 90.67 Q 407.87 93.19 410.05 93.19 Q 410.85 93.19 412.02 92.76 Z  M 407.65 89.71 L 410.76 89.71 Q 410.76 87.74 409.29 87.74 Q 407.82 87.74 407.65 89.71 Z  M 418.79 94 L 418.79 92.67 Q 418.01 94.16 416.44 94.16 Q 415.16 94.16 414.43 93.23 Q 413.7 92.3 413.7 90.69 Q 413.7 88.93 414.53 87.85 Q 415.36 86.78 416.71 86.78 Q 417.97 86.78 418.79 87.74 L 418.79 83.73 L 420.08 83.73 L 420.08 94 Z  M 418.79 88.62 Q 417.8 87.74 416.91 87.74 Q 415.07 87.74 415.07 90.56 Q 415.07 93.04 416.71 93.04 Q 417.77 93.04 418.79 91.87 Z "/></g><g style="fill: rgb(0,0,0); fill-opacity: 1.0; stroke: none" clip-path="url(#_910871224645875clip-0)"><path d="M 336.24 110 L 333.62 102.94 L 334.9 102.94 L 336.95 108.43 L 339.12 102.94 L 340.32 102.94 L 337.53 110 Z  M 345.32 109.1 Q 344.17 110.16 343.1 110.16 Q 342.22 110.16 341.64 109.61 Q 341.06 109.06 341.06 108.22 Q 341.06 107.07 342.04 106.45 Q 343.01 105.82 344.82 105.82 L 345.13 105.82 L 345.13 104.97 Q 345.13 103.74 343.87 103.74 Q 342.85 103.74 341.68 104.37 L 341.68 103.31 Q 342.97 102.78 344.1 102.78 Q 345.29 102.78 345.85 103.31 Q 346.41 103.85 346.41 104.97 L 346.41 108.17 Q 346.41 109.27 347.09 109.27 Q 347.17 109.27 347.33 109.25 L 347.42 109.95 Q 346.99 110.16 346.46 110.16 Q 345.56 110.16 345.32 109.1 Z  M 345.13 108.41 L 345.13 106.58 L 344.7 106.57 Q 343.65 106.57 343 106.97 Q 342.35 107.37 342.35 108.02 Q 342.35 108.48 342.67 108.8 Q 343 109.12 343.46 109.12 Q 344.26 109.12 345.13 108.41 Z  M 349.03 110 L 349.03 99.73 L 350.31 99.73 L 350.31 110 Z  M 352.88 110 L 352.88 102.94 L 354.16 102.94 L 354.16 110 Z  M 352.88 101.66 L 352.88 100.37 L 354.16 100.37 L 354.16 101.66 Z  M 361.27 110 L 361.27 108.67 Q 360.48 110.16 358.91 110.16 Q 357.64 110.16 356.9 109.23 Q 356.17 108.3 356.17 106.69 Q 356.17 104.93 357 103.85 Q 357.83 102.78 359.18 102.78 Q 360.44 102.78 361.27 103.74 L 361.27 99.73 L 362.55 99.73 L 362.55 110 Z  M 361.27 104.62 Q 360.27 103.74 359.38 103.74 Q 357.54 103.74 357.54 106.56 Q 357.54 109.04 359.18 109.04 Q 360.24 109.04 361.27 107.87 Z  M 368.76 109.1 Q 367.61 110.16 366.54 110.16 Q 365.66 110.16 365.08 109.61 Q 364.5 109.06 364.5 108.22 Q 364.5 107.07 365.48 106.45 Q 366.45 105.82 368.26 105.82 L 368.57 105.82 L 368.57 104.97 Q 368.57 103.74 367.31 103.74 Q 366.29 103.74 365.12 104.37 L 365.12 103.31 Q 366.41 102.78 367.54 102.78 Q 368.73 102.78 369.29 103.31 Q 369.85 103.85 369.85 104.97 L 369.85 108.17 Q 369.85 109.27 370.53 109.27 Q 370.61 109.27 370.77 109.25 L 370.86 109.95 Q 370.43 110.16 369.9 110.16 Q 369 110.16 368.76 109.1 Z  M 368.57 108.41 L 368.57 106.58 L 368.14 106.57 Q 367.09 106.57 366.44 106.97 Q 365.79 107.37 365.79 108.02 Q 365.79 108.48 366.11 108.8 Q 366.44 109.12 366.9 109.12 Q 367.7 109.12 368.57 108.41 Z  M 374.59 110.16 Q 373.62 110.16 373.07 109.6 Q 372.52 109.04 372.52 108.05 L 372.52 103.9 L 371.64 103.9 L 371.64 102.94 L 372.52 102.94 L 372.52 101.66 L 373.8 101.53 L 373.8 102.94 L 375.65 102.94 L 375.65 103.9 L 373.8 103.9 L 373.8 107.81 Q 373.8 109.2 375 109.2 Q 375.26 109.2 375.62 109.12 L 375.62 110 Q 375.03 110.16 374.59 110.16 Z  M 380.22 110.16 Q 378.7 110.16 377.8 109.16 Q 376.89 108.15 376.89 106.47 Q 376.89 104.76 377.8 103.77 Q 378.71 102.78 380.26 102.78 Q 381.82 102.78 382.72 103.77 Q 383.63 104.76 383.63 106.46 Q 383.63 108.19 382.72 109.17 Q 381.81 110.16 380.22 110.16 Z  M 380.24 109.2 Q 382.27 109.2 382.27 106.46 Q 382.27 103.74 380.26 103.74 Q 378.26 103.74 378.26 106.47 Q 378.26 109.2 380.24 109.2 Z  M 385.64 110 L 385.64 102.94 L 386.92 102.94 L 386.92 104.26 Q 387.68 102.78 389.13 102.78 Q 389.32 102.78 389.54 102.81 L 389.54 104.01 Q 389.21 103.9 388.95 103.9 Q 387.74 103.9 386.92 105.34 L 386.92 110 Z  M 397.42 110.16 Q 396.44 110.16 395.9 109.6 Q 395.35 109.04 395.35 108.05 L 395.35 103.9 L 394.47 103.9 L 394.47 102.94 L 395.35 102.94 L 395.35 101.66 L 396.63 101.53 L 396.63 102.94 L 398.48 102.94 L 398.48 103.9 L 396.63 103.9 L 396.63 107.81 Q 396.63 109.2 397.83 109.2 Q 398.08 109.2 398.45 109.12 L 398.45 110 Q 397.86 110.16 397.42 110.16 Z  M 400.69 112.57 L 401.84 110 L 399.1 102.94 L 400.49 102.94 L 402.51 108.26 L 404.67 102.94 L 405.88 102.94 L 402.03 112.57 Z  M 407.24 112.57 L 407.24 102.94 L 408.52 102.94 L 408.52 104.26 Q 409.31 102.78 410.88 102.78 Q 412.16 102.78 412.89 103.71 Q 413.62 104.64 413.62 106.25 Q 413.62 108.01 412.79 109.09 Q 411.96 110.16 410.61 110.16 Q 409.36 110.16 408.52 109.2 L 408.52 112.57 Z  M 408.52 108.32 Q 409.51 109.2 410.41 109.2 Q 412.26 109.2 412.26 106.38 Q 412.26 103.9 410.62 103.9 Q 409.54 103.9 408.52 105.06 Z  M 420.8 109.77 Q 419.51 110.16 418.6 110.16 Q 417.04 110.16 416.05 109.13 Q 415.07 108.09 415.07 106.44 Q 415.07 104.83 415.93 103.8 Q 416.8 102.77 418.15 102.77 Q 419.44 102.77 420.14 103.68 Q 420.83 104.6 420.83 106.27 L 420.83 106.67 L 416.37 106.67 Q 416.65 109.19 418.84 109.19 Q 419.64 109.19 420.8 108.76 Z  M 416.43 105.71 L 419.55 105.71 Q 419.55 103.74 418.08 103.74 Q 416.6 103.74 416.43 105.71 Z  M 424.92 110.16 Q 424.04 110.16 422.79 109.75 L 422.79 108.58 Q 424.04 109.2 424.97 109.2 Q 425.52 109.2 425.89 108.9 Q 426.25 108.6 426.25 108.15 Q 426.25 107.5 425.23 107.07 L 424.48 106.75 Q 422.82 106.06 422.82 104.76 Q 422.82 103.84 423.48 103.31 Q 424.13 102.78 425.27 102.78 Q 425.86 102.78 426.73 102.94 L 427 103 L 427 104.06 Q 425.93 103.74 425.3 103.74 Q 424.06 103.74 424.06 104.64 Q 424.06 105.22 425 105.62 L 425.61 105.88 Q 426.66 106.32 427.1 106.81 Q 427.53 107.3 427.53 108.04 Q 427.53 108.97 426.8 109.56 Q 426.06 110.16 424.92 110.16 Z "/></g></svg>
